<svg width="525" height="72" viewBox="0 0 525 72" fill="none" xmlns="http://www.w3.org/2000/svg">
<circle cx="35.8088" cy="36" r="35" fill="#1070FC"/>
<path d="M35.8088 59C38.5703 59 40.8088 56.7614 40.8088 54C40.8088 51.2386 38.5703 49 35.8088 49C33.0474 49 30.8088 51.2386 30.8088 54C30.8088 56.7614 33.0474 59 35.8088 59Z" fill="white"/>
<path d="M16.8088 43V42.2704L31.4803 14H40.2285L54.8088 42.2704V43H45.3316L35.9455 23.7579H35.6721L26.1949 43H16.8088Z" fill="white"/>
<path d="M494.668 57.6214V41.3748V33.2514V25.1281H502.188L502.838 28.8416H503.116C505.252 26.0565 508.315 24.571 512.4 24.571C519.549 24.571 524.191 29.1201 524.191 36.2687V57.5286H515.835V38.7753C515.835 34.5047 513.793 32.2766 509.801 32.2766C505.809 32.2766 503.116 35.1546 503.116 39.7037V57.7143H494.668V57.6214Z" fill="white"/>
<path d="M463.846 53.6294C461.154 50.5657 459.761 46.4809 459.761 41.5604C459.761 36.64 461.154 32.4623 463.846 29.3986C466.631 26.2421 470.438 24.7567 475.544 24.7567C480.557 24.7567 484.363 26.335 487.148 29.3986C489.934 32.5551 491.233 36.5472 491.233 41.5604C491.233 46.4809 489.841 50.5657 487.148 53.6294C484.456 56.6931 480.557 58.2713 475.544 58.2713C470.53 58.2713 466.631 56.6931 463.846 53.6294ZM475.637 31.9981C470.809 31.9981 468.395 35.1546 468.395 41.4676C468.395 47.6877 470.809 50.8442 475.637 50.8442C480.464 50.8442 482.878 47.6877 482.878 41.4676C482.878 35.1546 480.371 31.9981 475.637 31.9981Z" fill="white"/>
<path d="M448.064 57.6214V25.1281H456.419V57.6214H448.064ZM457.255 16.8655C457.255 14.0803 455.026 11.8522 452.241 11.8522C449.456 11.8522 447.228 14.0803 447.228 16.8655C447.228 19.6506 449.456 21.8787 452.241 21.8787C455.026 21.8787 457.255 19.6506 457.255 16.8655Z" fill="white"/>
<path d="M428.01 48.2448V32.2766H423.647V25.1281H428.382V18.1652L435.809 17.3297H436.459V25.0353H442.4V32.1838H436.459V46.388C436.459 49.4517 437.758 50.7514 440.636 50.7514C441.843 50.7514 442.864 50.5658 443.793 50.2872H444.443V57.2501C443.422 57.5286 441.101 58.0856 438.315 58.0856C430.981 58.0856 428.01 54.0008 428.01 48.2448Z" fill="white"/>
<path d="M411.299 57.6214V25.1281H419.655V57.6214H411.299ZM420.49 16.8655C420.49 14.0803 418.262 11.8522 415.477 11.8522C412.692 11.8522 410.464 14.0803 410.464 16.8655C410.464 19.6506 412.692 21.8787 415.477 21.8787C418.169 21.8787 420.49 19.6506 420.49 16.8655Z" fill="white"/>
<path d="M376.485 46.4809V25.2209H384.841V44.1599C384.841 48.4305 386.883 50.6586 390.875 50.6586C394.867 50.6586 397.559 47.7806 397.559 43.2315V25.2209H405.915V57.7143H398.395L397.745 54.0008H397.467C395.331 56.7859 392.268 58.2713 388.183 58.2713C381.034 58.1785 376.485 53.6294 376.485 46.4809Z" fill="white"/>
<path d="M356.896 48.2448V32.2766H352.533V25.1281H357.268V18.1652L364.695 17.3297H365.345V25.0353H371.286V32.1838H365.345V46.388C365.345 49.4517 366.644 50.7514 369.522 50.7514C370.729 50.7514 371.75 50.5658 372.679 50.2872H373.329V57.2501C372.308 57.5286 369.987 58.0856 367.201 58.0856C359.867 58.0856 356.896 54.0008 356.896 48.2448Z" fill="white"/>
<path d="M320.968 57.6214V25.1281H328.488L329.138 28.8416H329.416C331.552 26.0565 334.615 24.571 338.7 24.571C345.849 24.571 350.491 29.1201 350.491 36.2687V57.5286H342.135V38.7753C342.135 34.5047 340.093 32.2766 336.101 32.2766C332.109 32.2766 329.416 35.1546 329.416 39.7037V57.7143H320.968V57.6214Z" fill="white"/>
<path d="M306.764 57.6214V13.9875H315.398V57.7142H306.764V57.6214Z" fill="white"/>
<path d="M262.851 53.6294C260.438 50.5657 259.323 46.4808 259.323 41.4676C259.323 36.5471 260.53 32.4623 262.851 29.3986C265.172 26.3349 268.514 24.7567 272.692 24.7567C276.591 24.7567 279.562 26.1493 281.605 28.8416H281.883V13.9875H290.239V57.7142H282.719L281.883 54.1864H281.605C279.562 56.8787 276.591 58.2713 272.692 58.2713C268.607 58.1784 265.358 56.693 262.851 53.6294ZM275.013 50.8442C279.934 50.8442 282.162 46.945 282.162 41.3747C282.162 35.8044 279.934 31.9052 275.013 31.9052C270 31.9052 267.865 35.6188 267.865 41.3747C267.865 46.945 270.093 50.8442 275.013 50.8442Z" fill="white"/>
<path d="M229.615 53.5366C226.83 50.3801 225.438 46.388 225.438 41.4676C225.438 36.5472 226.737 32.648 229.43 29.3986C232.122 26.1493 236.021 24.571 240.941 24.571C245.583 24.571 249.297 26.0565 251.989 29.0273C254.682 31.9981 256.074 35.8045 256.074 40.3535V43.6029H233.979C234.071 48.2448 236.392 51.1228 241.127 51.1228C244.562 51.1228 246.697 49.9159 247.533 47.4092H255.703C255.239 50.4729 253.66 53.0724 251.061 55.1148C248.461 57.1573 245.212 58.0856 241.127 58.0856C236.207 58.1785 232.4 56.6931 229.615 53.5366ZM247.533 38.2183C247.347 34.3191 245.119 31.6267 240.941 31.6267C236.485 31.6267 234.164 34.2262 233.979 38.2183H247.533Z" fill="white"/>
<path d="M212.997 57.6214V25.1281H221.353V57.6214H212.997ZM222.188 16.8655C222.188 14.0803 219.96 11.8522 217.175 11.8522C214.39 11.8522 212.162 14.0803 212.162 16.8655C212.162 19.6506 214.39 21.8787 217.175 21.8787C219.867 21.8787 222.188 19.6506 222.188 16.8655Z" fill="white"/>
<path d="M199.072 57.6214V13.9875H207.427V57.7142H199.072V57.6214Z" fill="white"/>
<path d="M157.201 29.3058C154.788 26.1493 151.538 24.6638 147.546 24.6638C143.647 24.6638 140.583 26.0564 138.541 28.7487H138.262L137.427 25.2209H127.586V29.2129L129.907 31.6267V69.2262H138.262V54.1864H138.541C140.583 56.8787 143.554 58.2713 147.546 58.2713C151.631 58.2713 154.88 56.693 157.294 53.6294C159.708 50.4729 160.822 46.4808 160.822 41.5604C160.822 36.4543 159.615 32.3694 157.201 29.3058ZM145.132 50.8442C142.626 50.8442 140.862 50.0087 139.655 48.2447C138.541 46.4808 137.984 44.2527 137.984 41.4676C137.984 38.6824 138.541 36.4543 139.748 34.6904C140.955 32.8336 142.719 31.9981 145.225 31.9981C150.238 31.9981 152.374 35.8044 152.374 41.4676C152.374 47.0379 150.146 50.8442 145.132 50.8442Z" fill="white"/>
<path d="M191.366 29.3058C188.952 26.1493 185.703 24.6638 181.711 24.6638C177.811 24.6638 174.748 26.0564 172.705 28.7487H172.427L171.591 25.2209H161.75V29.2129L164.071 31.6267V69.2262H172.427V54.1864H172.705C174.748 56.8787 177.719 58.2713 181.711 58.2713C185.796 58.2713 189.045 56.693 191.459 53.6294C193.873 50.4729 194.987 46.4808 194.987 41.5604C194.987 36.4543 193.872 32.3694 191.366 29.3058ZM179.39 50.8442C176.883 50.8442 175.119 50.0087 173.912 48.2447C172.798 46.4808 172.241 44.2527 172.241 41.4676C172.241 38.6824 172.798 36.4543 174.005 34.6904C175.212 32.8336 176.976 31.9981 179.483 31.9981C184.496 31.9981 186.631 35.8044 186.631 41.4676C186.538 47.0379 184.31 50.8442 179.39 50.8442Z" fill="white"/>
<path d="M111.989 13.9875L127.308 57.0644V57.7142H117.838L114.867 48.5233H97.785L94.8141 57.7142H85.8088V57.0644L101.127 13.9875H111.989ZM100.292 40.9105H112.361L106.419 22.7142H106.14L100.292 40.9105Z" fill="white"/>
</svg>
