<svg width="3011" height="631" viewBox="0 0 3011 631" fill="none" xmlns="http://www.w3.org/2000/svg">
<path d="M921.14 198.108C874.049 198.108 834.541 217.236 806.605 251.109V67.3972C806.605 49.0659 796.229 38.7047 777.872 38.7047H707.235C688.878 38.7047 678.502 49.0659 678.502 67.3972V591.833C678.502 610.164 688.878 620.526 707.235 620.526H777.872C796.229 620.526 806.605 610.164 806.605 591.833V397.361C806.605 340.773 841.325 310.487 882.829 310.487C920.741 310.487 949.474 340.773 949.474 381.82V591.833C949.474 610.164 959.85 620.526 978.208 620.526H1048.84C1067.2 620.526 1077.58 610.164 1077.58 591.833V361.496C1077.58 263.861 1011.73 198.108 921.14 198.108Z" fill="#00B5CB"/>
<path d="M1144.39 414.099C1144.39 535.245 1225 630.09 1338.74 630.09C1393.02 630.09 1437.71 609.367 1470.04 575.096V591.833C1470.04 610.164 1480.41 620.526 1498.77 620.526H1567.41C1585.77 620.526 1596.15 610.164 1596.15 591.833V236.364C1596.15 218.033 1585.77 207.672 1567.41 207.672H1498.77C1480.41 207.672 1470.04 218.033 1470.04 236.364V253.102C1437.71 218.83 1393.02 198.108 1338.74 198.108C1225 198.108 1144.39 292.952 1144.39 414.099ZM1271.7 414.099C1271.7 355.518 1314.8 310.487 1370.27 310.487C1426.14 310.487 1470.04 355.518 1470.04 414.099C1470.04 473.078 1426.14 517.711 1370.27 517.711C1314.8 517.711 1271.7 473.078 1271.7 414.099Z" fill="#00B5CB"/>
<path d="M1905.17 310.487C1911.56 310.487 1917.94 310.885 1924.73 312.081C1944.68 314.87 1956.26 308.494 1957.85 288.569L1962.64 230.387C1963.84 212.852 1956.65 199.702 1939.49 198.506C1937.5 198.108 1935.9 198.108 1933.91 198.108C1887.21 198.108 1850.9 220.026 1824.56 254.297V236.364C1824.56 218.033 1814.18 207.672 1795.83 207.672H1725.19C1706.83 207.672 1696.46 218.033 1696.46 236.364V591.833C1696.46 610.164 1706.83 620.526 1725.19 620.526H1795.83C1814.18 620.526 1824.56 610.164 1824.56 591.833V401.346C1824.56 343.563 1862.07 310.487 1905.17 310.487Z" fill="#00B5CB"/>
<path d="M2022.84 99.6763C2022.84 139.527 2054.76 169.415 2096.27 169.415C2137.77 169.415 2169.7 139.527 2169.7 99.6763C2169.7 60.2241 2137.77 29.9375 2096.27 29.9375C2054.76 29.9375 2022.84 60.2241 2022.84 99.6763ZM2032.02 236.364V591.833C2032.02 610.164 2042.39 620.526 2060.75 620.526H2131.39C2149.74 620.526 2160.12 610.164 2160.12 591.833V236.364C2160.12 218.033 2149.74 207.672 2131.39 207.672H2060.75C2042.39 207.672 2032.02 218.033 2032.02 236.364Z" fill="#00B5CB"/>
<path d="M2235.61 414.099C2235.61 535.245 2334.98 630.09 2467.08 630.09C2599.17 630.09 2698.54 535.245 2698.54 414.099C2698.54 292.952 2599.17 198.108 2467.08 198.108C2334.98 198.108 2235.61 292.952 2235.61 414.099ZM2362.92 414.099C2362.92 355.518 2407.62 310.487 2467.08 310.487C2526.54 310.487 2571.24 355.518 2571.24 414.099C2571.24 473.078 2526.54 517.711 2467.08 517.711C2407.62 517.711 2362.92 473.078 2362.92 414.099Z" fill="#00B5CB"/>
<path d="M2916.02 471.085V318.457H2977.48C2995.83 318.457 3006.21 308.096 3006.21 289.764V236.364C3006.21 218.033 2995.83 207.672 2977.48 207.672H2916.02V119.203C2916.02 99.6763 2904.45 89.7137 2885.29 92.5032L2813.86 103.263C2796.3 106.052 2787.52 116.414 2787.52 133.948V207.672H2748.41C2730.05 207.672 2719.67 218.033 2719.67 236.364V289.764C2719.67 308.096 2730.05 318.457 2748.41 318.457H2787.52V484.236C2787.52 576.69 2841.79 630.09 2929.99 630.09C2951.54 630.09 2972.29 626.902 2989.85 620.924C3005.01 615.743 3011 603.788 3011 587.848V546.802C3011 527.673 3000.62 518.508 2981.47 519.305H2969.1C2931.18 519.305 2916.02 504.161 2916.02 471.085Z" fill="#00B5CB"/>
<path d="M476.761 44.1198C478.283 45.0208 478.673 47.0395 477.614 48.4554L474.178 53.0492L419.436 126.386L395.167 158.915L385.252 172.184C384.396 173.33 382.851 173.709 381.55 173.114C361.613 163.987 339.483 158.915 316.133 158.915C297.841 158.915 280.296 162.031 263.973 167.786C202.304 189.419 158.067 248.402 158.067 317.736C158.067 346.443 165.651 373.375 178.917 396.623C184.351 406.131 190.712 415.025 197.934 423.169C226.867 455.925 269.112 476.579 316.133 476.579H337.426C340.129 476.579 341.437 479.855 339.443 481.68C331.995 488.496 324.217 494.955 316.133 501.033C271.217 534.88 217.019 556.945 158.067 562.768C147.766 563.792 137.329 564.315 126.757 564.315C123.717 564.315 120.659 564.278 117.633 564.171C116.986 564.148 116.365 563.914 115.865 563.504C111.176 559.667 106.59 555.649 102.125 551.509C78.6032 529.785 58.3864 504.536 42.3126 476.557C19.3339 436.658 4.75421 391.255 0.973468 342.826C0.339571 334.546 0 326.198 0 317.736C0 259.89 15.4173 205.637 42.3126 158.915C56.6659 133.938 74.3244 111.168 94.6544 91.128C113.626 72.4071 134.907 56.0519 158.067 42.6083C204.568 15.5846 258.539 0.09375 316.133 0.09375C319.507 0.09375 322.903 0.139214 326.253 0.275697C380.044 1.95899 430.439 17.1769 474.2 42.6083C475.058 43.1148 475.911 43.6162 476.761 44.1198Z" fill="#00B5CB"/>
<path d="M591.003 491.387C591.654 493.6 589.668 495.69 587.425 495.151L576.972 492.641C576.972 492.641 576.972 492.641 576.972 492.641C576.968 492.64 566.638 490.158 563.58 489.42C563.026 489.286 563.062 489.347 563.307 489.862C566.703 497.008 527.627 540.98 524.067 545.047C439.158 642.258 301.367 644.073 188.238 604.78C187.788 604.621 187.337 604.462 186.909 604.326C176.955 600.855 167.563 597.339 159.004 593.981C140.974 586.938 126.73 580.612 119.072 576.815C116.685 575.631 117.181 574.631 119.754 575.323C127.153 577.315 134.959 578.695 142.608 579.643C148.239 580.347 153.779 580.8 159.004 581.095C177.729 582.164 192.625 581.157 193.755 581.078C193.806 581.074 193.849 581.072 193.901 581.071C217.164 580.542 240.763 576.572 264.026 568.89C282.764 562.674 300.241 554.371 316.255 544.298C326.187 538.105 335.556 531.185 344.34 523.699C349.024 519.706 353.506 515.577 357.853 511.267C369.385 499.833 379.722 487.287 388.664 473.902C393.073 467.319 397.168 460.543 400.9 453.572C401.663 452.147 400.865 450.394 399.294 450.013V450.013L377.628 444.82C375.389 444.283 374.564 441.528 376.14 439.849L450.239 360.902C450.239 360.902 450.239 360.902 450.239 360.901C450.255 360.885 467.215 342.843 471.129 338.664C471.65 338.107 472.219 337.497 472.741 336.941L473.482 336.15L492.851 315.506L524.317 281.978C525.902 280.288 528.723 280.957 529.381 283.179L538.954 315.506L560.193 387.263L577.246 444.905C577.27 444.988 577.345 445.045 577.43 445.062V445.062C577.545 445.086 577.615 445.211 577.583 445.325C577.558 445.414 577.536 445.501 577.515 445.592C577.498 445.665 577.501 445.74 577.522 445.812L585.823 473.879L586.792 477.078L591.003 491.387Z" fill="#80DAE5"/>
<path d="M26.3181 375.105C15.5095 377.381 4.8352 370.469 3.2506 359.537C-5.70729 297.741 3.92726 234.505 31.1652 177.982C61.3046 115.437 111.302 64.6299 173.354 33.4891C235.406 2.34824 306.021 -7.37404 374.18 5.83953C435.777 17.7811 492.236 47.8479 536.429 91.9614C544.246 99.7649 543.409 112.454 535.125 119.76L445.634 198.676C437.35 205.981 424.787 205.072 416.476 197.796C395.93 179.809 370.898 167.485 343.859 162.243C310.243 155.726 275.416 160.521 244.812 175.88C214.209 191.238 189.551 216.296 174.686 247.143C162.729 271.955 157.65 299.39 159.793 326.613C160.66 337.624 153.881 348.24 143.073 350.517L26.3181 375.105Z" fill="#00B5CB"/>
</svg>
