<svg width="179" height="47" viewBox="0 0 179 47" fill="none" xmlns="http://www.w3.org/2000/svg">
<path d="M1.7003 39.1552C0.669813 38.6914 0 37.6609 0 36.5274V19.4212C0 10.7136 3.60672 5.14892 9.58358 4.4791C11.7476 4.22148 14.4784 3.91234 17.3638 3.55167C22.7739 2.88185 28.8538 2.1605 33.594 1.74831C34.0062 1.69678 34.4699 1.69678 34.8821 1.69678C39.2102 1.69678 42.9715 3.70623 45.4447 7.26143C47.7633 10.6105 48.9483 15.2993 48.9483 21.1731V38.6914C48.9483 40.1341 47.8663 41.3192 46.4752 41.5253L17.6729 45.4411C16.9001 45.5442 16.0757 45.4411 15.3543 45.132L1.7003 39.1552Z" fill="#FF0098"/>
<path d="M45.5477 21.2762C45.5477 14.8357 44.0535 10.1984 41.1681 7.51917C39.2617 5.76734 36.737 4.94294 33.9547 5.20057C26.8443 5.81886 17.3638 6.95241 9.94423 7.93138C5.87378 8.44662 3.45213 12.5171 3.45213 19.4729V35.3424C3.45213 35.8577 3.76128 36.3729 4.225 36.579L16.5909 42.0406C16.7455 42.0922 16.9516 42.1437 17.1577 42.1437C17.2092 42.1437 17.2607 42.1437 17.3638 42.1437L44.4142 38.4854C45.084 38.3824 45.5992 37.8156 45.5992 37.1458V21.2762C45.5477 21.2762 45.5477 21.2762 45.5477 21.2762Z" fill="white"/>
<path d="M34.1093 7.87985C36.1702 7.67375 37.9221 8.24052 39.2617 9.47711C41.4257 11.435 42.6108 15.0933 42.7654 20.0912L36.3764 20.864V17.7726C36.3764 17.4119 36.2218 16.9997 35.9126 16.7421C35.6035 16.4845 35.2428 16.3814 34.8821 16.4329L26.0199 17.5149C25.3501 17.618 24.8348 18.1848 24.8348 18.8546V22.3067L18.3943 23.0796C18.2397 16.0207 16.797 12.0533 14.9937 9.99236C20.5068 9.32254 29.472 8.29204 34.1093 7.87985Z" fill="#FF53D2"/>
<path d="M33.7486 19.2666V28.9532L30.5541 27.2014L27.5657 29.5715V20.0395L33.7486 19.2666Z" fill="#FF0098"/>
<path d="M10.408 10.5591C13.6025 10.5591 15.4574 14.7841 15.715 22.5643L6.0799 18.5969C6.18294 15.9176 6.85276 10.5591 10.408 10.5591Z" fill="#FF0098"/>
<path d="M6.0799 21.4819L15.7665 25.5009V38.7427L6.0799 34.4661V21.4819Z" fill="#FF0098"/>
<path d="M42.8169 35.9608L18.4458 39.2583V25.7589L24.8863 24.986V32.3541C24.8863 32.8693 25.1955 33.333 25.6592 33.5391C25.8653 33.6422 26.0199 33.6937 26.226 33.6937C26.5351 33.6937 26.8443 33.5906 27.0504 33.3845L30.8117 30.3961L34.4184 32.4056C34.8306 32.6117 35.3458 32.6117 35.758 32.4056C36.1702 32.148 36.4278 31.7358 36.4278 31.272V23.6464L42.8169 22.8735V35.9608Z" fill="#FF53D2"/>
<path d="M77.7878 37.5082C75.9375 37.5082 74.198 37.1433 72.5693 36.4137C70.9405 35.6709 69.5072 34.6481 68.2694 33.3451C67.0446 32.0421 66.0803 30.5371 65.3767 28.8302C64.6861 27.1103 64.3408 25.273 64.3408 23.3185C64.3408 21.351 64.6861 19.5138 65.3767 17.8069C66.0803 16.0869 67.0446 14.5819 68.2694 13.292C69.5072 11.989 70.9405 10.9726 72.5693 10.243C74.198 9.50025 75.9375 9.1289 77.7878 9.1289C80.0029 9.1289 82.0421 9.64358 83.9053 10.6729C85.7686 11.6893 87.3127 13.0509 88.5375 14.7578L84.2767 17.0446C83.5079 16.0934 82.5502 15.3312 81.4036 14.7578C80.27 14.1845 79.0647 13.8979 77.7878 13.8979C76.589 13.8979 75.4619 14.1454 74.4065 14.6406C73.3511 15.1227 72.4259 15.8002 71.6311 16.6732C70.8363 17.5332 70.2174 18.5365 69.7743 19.6832C69.3313 20.8168 69.1098 22.0286 69.1098 23.3185C69.1098 24.6215 69.3313 25.8398 69.7743 26.9734C70.2304 28.107 70.8558 29.1104 71.6507 29.9834C72.4455 30.8433 73.3641 31.5209 74.4065 32.016C75.4619 32.4981 76.589 32.7392 77.7878 32.7392C79.0908 32.7392 80.3026 32.4525 81.4231 31.8792C82.5567 31.2929 83.5079 30.5241 84.2767 29.5729L88.5375 31.8792C87.3127 33.5731 85.7686 34.9348 83.9053 35.9641C82.0421 36.9935 80.0029 37.5082 77.7878 37.5082ZM110.129 24.6476V37H105.36V25.8985C105.36 25.1297 105.171 24.4326 104.793 23.8072C104.416 23.1687 103.907 22.667 103.269 22.3022C102.643 21.9243 101.946 21.7354 101.178 21.7354C100.409 21.7354 99.7052 21.9243 99.0667 22.3022C98.4413 22.667 97.9396 23.1687 97.5618 23.8072C97.1969 24.4326 97.0145 25.1297 97.0145 25.8985V37H92.2455L92.226 7.68257H96.995L97.0145 19.1945C97.679 18.4909 98.4739 17.9372 99.399 17.5332C100.324 17.1163 101.321 16.9078 102.389 16.9078C103.81 16.9078 105.106 17.2596 106.279 17.9632C107.452 18.6538 108.383 19.5854 109.074 20.7581C109.777 21.9178 110.129 23.2143 110.129 24.6476ZM122.241 37.5082C120.443 37.5082 118.801 37.0456 117.316 36.1205C115.844 35.1953 114.664 33.951 113.778 32.3874C112.905 30.8238 112.469 29.0973 112.469 27.208C112.469 25.7877 112.723 24.4587 113.231 23.2208C113.739 21.9699 114.436 20.8754 115.322 19.9373C116.221 18.9861 117.264 18.2434 118.45 17.7091C119.635 17.1749 120.899 16.9078 122.241 16.9078C123.766 16.9078 125.16 17.2335 126.424 17.885C127.701 18.5235 128.782 19.403 129.668 20.5236C130.554 21.6442 131.199 22.9211 131.603 24.3544C132.007 25.7877 132.098 27.2862 131.877 28.8498H117.59C117.772 29.5794 118.072 30.2374 118.489 30.8238C118.906 31.3971 119.433 31.8597 120.072 32.2115C120.71 32.5503 121.433 32.7262 122.241 32.7392C123.075 32.7522 123.831 32.5568 124.508 32.1529C125.199 31.7359 125.772 31.1756 126.228 30.472L131.095 31.6056C130.3 33.3386 129.115 34.7588 127.538 35.8664C125.961 36.9609 124.196 37.5082 122.241 37.5082ZM117.433 25.273H127.049C126.906 24.4912 126.6 23.7876 126.131 23.1622C125.675 22.5237 125.108 22.0155 124.43 21.6377C123.753 21.2598 123.023 21.0709 122.241 21.0709C121.459 21.0709 120.736 21.2598 120.072 21.6377C119.407 22.0025 118.84 22.5042 118.371 23.1426C117.915 23.7681 117.603 24.4782 117.433 25.273ZM140.975 37.3518C139.959 37.2867 138.975 37.0847 138.024 36.7459C137.086 36.3941 136.252 35.9185 135.522 35.3191C134.793 34.7198 134.232 34.0031 133.841 33.1692L137.868 31.4492C138.024 31.7098 138.278 31.99 138.63 32.2897C138.982 32.5763 139.399 32.8174 139.881 33.0128C140.376 33.2083 140.917 33.306 141.503 33.306C141.998 33.306 142.467 33.2409 142.91 33.1106C143.366 32.9672 143.731 32.7522 144.005 32.4656C144.292 32.1789 144.435 31.8076 144.435 31.3515C144.435 30.8694 144.265 30.498 143.927 30.2374C143.601 29.9638 143.184 29.7619 142.676 29.6316C142.181 29.4882 141.699 29.3579 141.229 29.2407C139.992 28.9931 138.838 28.6087 137.77 28.0875C136.715 27.5663 135.861 26.8953 135.21 26.0744C134.571 25.2405 134.252 24.2371 134.252 23.0644C134.252 21.7745 134.591 20.6604 135.268 19.7223C135.959 18.7841 136.851 18.0609 137.946 17.5528C139.053 17.0446 140.246 16.7905 141.523 16.7905C143.073 16.7905 144.493 17.1163 145.783 17.7678C147.086 18.4062 148.116 19.3118 148.872 20.4845L145.099 22.7126C144.917 22.3999 144.663 22.1133 144.337 21.8527C144.011 21.579 143.64 21.3575 143.223 21.1881C142.806 21.0057 142.37 20.9015 141.914 20.8754C141.327 20.8494 140.793 20.9015 140.311 21.0318C139.829 21.1621 139.438 21.3836 139.138 21.6963C138.851 22.009 138.708 22.426 138.708 22.9472C138.708 23.4423 138.904 23.8137 139.295 24.0612C139.685 24.2958 140.154 24.4782 140.702 24.6085C141.262 24.7388 141.796 24.8821 142.304 25.0385C143.451 25.4164 144.526 25.8789 145.529 26.4262C146.546 26.9734 147.36 27.6445 147.972 28.4393C148.585 29.2341 148.878 30.1853 148.852 31.2929C148.852 32.5568 148.474 33.6643 147.718 34.6155C146.963 35.5537 145.985 36.2703 144.787 36.7655C143.601 37.2606 142.33 37.456 140.975 37.3518ZM162.673 22.224H158.881V37H154.112V22.224H151.22V17.455H154.112V11.3179H158.881V17.455H162.673V22.224ZM166.226 37L166.207 17.455H170.976L170.995 19.1945C171.66 18.4909 172.455 17.9372 173.38 17.5332C174.305 17.1163 175.302 16.9078 176.37 16.9078C177.087 16.9078 177.803 17.012 178.52 17.2205L176.644 22.0286C176.149 21.8331 175.653 21.7354 175.158 21.7354C174.39 21.7354 173.686 21.9243 173.047 22.3022C172.422 22.667 171.92 23.1687 171.542 23.8072C171.178 24.4326 170.995 25.1297 170.995 25.8985V37H166.226Z" fill="#FF0098"/>
</svg>
