<svg width="135" height="40" viewBox="0 0 135 40" fill="none" xmlns="http://www.w3.org/2000/svg">
<g clip-path="url(#clip0)">
<path fill-rule="evenodd" clip-rule="evenodd" d="M20.4451 4.2841C18.9451 3.58025 17.1586 4.2256 16.4548 5.72552L4.27436 31.6827C3.98061 32.3086 3.92187 32.9845 4.06217 33.6109C4.34431 34.9748 5.55239 36 6.99994 36H32.9999C34.6568 36 35.9999 34.6569 35.9999 33C35.9999 32.8899 35.994 32.7813 35.9825 32.6743C35.9407 32.2659 35.8141 31.8595 35.5955 31.4809L29.8305 21.4955C29.0021 20.0607 27.1673 19.5691 25.7324 20.3975C24.2975 21.2259 23.8059 23.0607 24.6343 24.4955L27.8123 30H11.6917L21.8865 8.2744C22.5903 6.77446 21.945 4.98794 20.4451 4.2841ZM26.4666 16.4667C26.4666 18.1235 25.1235 19.4667 23.4666 19.4667C21.8097 19.4667 20.4666 18.1235 20.4666 16.4667C20.4666 14.8098 21.8097 13.4667 23.4666 13.4667C25.1235 13.4667 26.4666 14.8098 26.4666 16.4667Z" fill="url(#paint0_linear)"/>
<path d="M52.06 28.24C51.14 28.24 50.3067 28.0933 49.56 27.8C48.8267 27.4933 48.1933 27.04 47.66 26.44C47.14 25.84 46.74 25.1 46.46 24.22C46.18 23.3267 46.04 22.2933 46.04 21.12C46.04 19.9467 46.18 18.9067 46.46 18C46.74 17.08 47.14 16.3133 47.66 15.7C48.1933 15.0733 48.8267 14.6 49.56 14.28C50.3067 13.96 51.14 13.8 52.06 13.8C53.3133 13.8 54.3533 14.0667 55.18 14.6C56.0067 15.1333 56.6667 15.94 57.16 17.02L54.9 18.22C54.7 17.5933 54.3733 17.0933 53.92 16.72C53.4667 16.3333 52.8467 16.14 52.06 16.14C51.0733 16.14 50.2867 16.4733 49.7 17.14C49.1267 17.8067 48.84 18.74 48.84 19.94V22.14C48.84 23.3533 49.1267 24.2867 49.7 24.94C50.2867 25.58 51.0733 25.9 52.06 25.9C52.8467 25.9 53.4867 25.6867 53.98 25.26C54.4867 24.8333 54.8533 24.3067 55.08 23.68L57.22 24.94C56.7133 25.98 56.04 26.7933 55.2 27.38C54.36 27.9533 53.3133 28.24 52.06 28.24ZM63.452 28.24C62.7054 28.24 62.032 28.1133 61.432 27.86C60.8454 27.6067 60.3387 27.24 59.912 26.76C59.4987 26.28 59.1787 25.7067 58.952 25.04C58.7254 24.36 58.612 23.6 58.612 22.76C58.612 21.92 58.7254 21.1667 58.952 20.5C59.1787 19.8333 59.4987 19.2667 59.912 18.8C60.3387 18.32 60.8454 17.9533 61.432 17.7C62.032 17.4467 62.7054 17.32 63.452 17.32C64.1987 17.32 64.872 17.4467 65.472 17.7C66.072 17.9533 66.5787 18.32 66.992 18.8C67.4187 19.2667 67.7454 19.8333 67.972 20.5C68.1987 21.1667 68.312 21.92 68.312 22.76C68.312 23.6 68.1987 24.36 67.972 25.04C67.7454 25.7067 67.4187 26.28 66.992 26.76C66.5787 27.24 66.072 27.6067 65.472 27.86C64.872 28.1133 64.1987 28.24 63.452 28.24ZM63.452 26.18C64.132 26.18 64.6654 25.9733 65.052 25.56C65.4387 25.1467 65.632 24.54 65.632 23.74V21.8C65.632 21.0133 65.4387 20.4133 65.052 20C64.6654 19.5867 64.132 19.38 63.452 19.38C62.7854 19.38 62.2587 19.5867 61.872 20C61.4854 20.4133 61.292 21.0133 61.292 21.8V23.74C61.292 24.54 61.4854 25.1467 61.872 25.56C62.2587 25.9733 62.7854 26.18 63.452 26.18ZM73.1416 28C72.2616 28 71.6149 27.78 71.2016 27.34C70.7882 26.9 70.5816 26.28 70.5816 25.48V13.2H73.1416V25.96H74.5216V28H73.1416ZM78.8838 28C78.0038 28 77.3571 27.78 76.9438 27.34C76.5304 26.9 76.3238 26.28 76.3238 25.48V13.2H78.8838V25.96H80.2638V28H78.8838ZM89.8827 28C89.3227 28 88.876 27.84 88.5427 27.52C88.2227 27.1867 88.0227 26.7467 87.9427 26.2H87.8227C87.6493 26.88 87.296 27.3933 86.7627 27.74C86.2293 28.0733 85.5693 28.24 84.7827 28.24C83.716 28.24 82.896 27.96 82.3227 27.4C81.7493 26.84 81.4627 26.0933 81.4627 25.16C81.4627 24.08 81.8493 23.28 82.6227 22.76C83.396 22.2267 84.496 21.96 85.9227 21.96H87.7027V21.2C87.7027 20.6133 87.5493 20.16 87.2427 19.84C86.936 19.52 86.4427 19.36 85.7627 19.36C85.1627 19.36 84.676 19.4933 84.3027 19.76C83.9427 20.0133 83.636 20.32 83.3827 20.68L81.8627 19.32C82.2493 18.72 82.7627 18.24 83.4027 17.88C84.0427 17.5067 84.8893 17.32 85.9427 17.32C87.356 17.32 88.4293 17.64 89.1627 18.28C89.896 18.92 90.2627 19.84 90.2627 21.04V25.96H91.3027V28H89.8827ZM85.6427 26.38C86.216 26.38 86.7027 26.2533 87.1027 26C87.5027 25.7467 87.7027 25.3733 87.7027 24.88V23.5H86.0627C84.7293 23.5 84.0627 23.9267 84.0627 24.78V25.12C84.0627 25.5467 84.196 25.8667 84.4627 26.08C84.7427 26.28 85.136 26.38 85.6427 26.38ZM93.3745 13.2H95.9345V19.28H96.0145C96.2012 18.68 96.5545 18.2067 97.0745 17.86C97.5945 17.5 98.2012 17.32 98.8945 17.32C100.228 17.32 101.241 17.7933 101.935 18.74C102.641 19.6733 102.995 21.0133 102.995 22.76C102.995 24.52 102.641 25.8733 101.935 26.82C101.241 27.7667 100.228 28.24 98.8945 28.24C98.2012 28.24 97.5945 28.06 97.0745 27.7C96.5679 27.34 96.2145 26.86 96.0145 26.26H95.9345V28H93.3745V13.2ZM98.0745 26.12C98.7412 26.12 99.2812 25.9 99.6945 25.46C100.108 25.02 100.315 24.4267 100.315 23.68V21.88C100.315 21.1333 100.108 20.54 99.6945 20.1C99.2812 19.6467 98.7412 19.42 98.0745 19.42C97.4612 19.42 96.9479 19.5733 96.5345 19.88C96.1345 20.1867 95.9345 20.5933 95.9345 21.1V24.42C95.9345 24.9667 96.1345 25.3867 96.5345 25.68C96.9479 25.9733 97.4612 26.12 98.0745 26.12ZM118.893 28L117.773 24.44H112.813L111.713 28H109.033L113.713 14.04H116.993L121.633 28H118.893ZM115.333 16.44H115.233L113.453 22.18H117.133L115.333 16.44ZM123.111 28V25.88H124.951V16.16H123.111V14.04H129.451V16.16H127.591V25.88H129.451V28H123.111Z" fill="white"/>
</g>
<defs>
<linearGradient id="paint0_linear" x1="10.8999" y1="17.3" x2="35.4999" y2="35.7" gradientUnits="userSpaceOnUse">
<stop stop-color="#4461FF"/>
<stop offset="1" stop-color="#AD70FB"/>
</linearGradient>
<clipPath id="clip0">
<rect width="135" height="40" fill="white"/>
</clipPath>
</defs>
</svg>
