<svg width="1126" height="188" viewBox="0 0 1126 188" fill="none" xmlns="http://www.w3.org/2000/svg">
<path d="M297.824 124.104H326.496V141H275.936V51.144H297.824V124.104ZM332.584 105.16C332.584 97.8213 333.949 91.3787 336.68 85.832C339.496 80.2853 343.293 76.0187 348.072 73.032C352.851 70.0453 358.184 68.552 364.072 68.552C369.107 68.552 373.501 69.576 377.256 71.624C381.096 73.672 384.04 76.36 386.088 79.688V69.576H407.976V141H386.088V130.888C383.955 134.216 380.968 136.904 377.128 138.952C373.373 141 368.979 142.024 363.944 142.024C358.141 142.024 352.851 140.531 348.072 137.544C343.293 134.472 339.496 130.163 336.68 124.616C333.949 118.984 332.584 112.499 332.584 105.16ZM386.088 105.288C386.088 99.8267 384.552 95.5173 381.48 92.36C378.493 89.2027 374.824 87.624 370.472 87.624C366.12 87.624 362.408 89.2027 359.336 92.36C356.349 95.432 354.856 99.6987 354.856 105.16C354.856 110.621 356.349 114.973 359.336 118.216C362.408 121.373 366.12 122.952 370.472 122.952C374.824 122.952 378.493 121.373 381.48 118.216C384.552 115.059 386.088 110.749 386.088 105.288ZM494.339 69.576V141H472.451V131.272C470.232 134.429 467.203 136.989 463.363 138.952C459.608 140.829 455.427 141.768 450.819 141.768C445.358 141.768 440.536 140.573 436.355 138.184C432.174 135.709 428.931 132.168 426.627 127.56C424.323 122.952 423.171 117.533 423.171 111.304V69.576H444.931V108.36C444.931 113.139 446.168 116.851 448.643 119.496C451.118 122.141 454.446 123.464 458.627 123.464C462.894 123.464 466.264 122.141 468.739 119.496C471.214 116.851 472.451 113.139 472.451 108.36V69.576H494.339ZM553.581 68.808C561.944 68.808 568.6 71.5387 573.549 77C578.584 82.376 581.101 89.8 581.101 99.272V141H559.341V102.216C559.341 97.4373 558.104 93.7253 555.629 91.08C553.154 88.4347 549.826 87.112 545.645 87.112C541.464 87.112 538.136 88.4347 535.661 91.08C533.186 93.7253 531.949 97.4373 531.949 102.216V141H510.061V69.576H531.949V79.048C534.168 75.8907 537.154 73.416 540.909 71.624C544.664 69.7467 548.888 68.808 553.581 68.808ZM591.959 105.288C591.959 97.864 593.452 91.3787 596.439 85.832C599.511 80.2853 603.735 76.0187 609.111 73.032C614.572 70.0453 620.802 68.552 627.799 68.552C636.759 68.552 644.226 70.8987 650.199 75.592C656.258 80.2853 660.226 86.8987 662.103 95.432H638.807C636.844 89.9707 633.047 87.24 627.415 87.24C623.404 87.24 620.204 88.8187 617.815 91.976C615.426 95.048 614.231 99.4853 614.231 105.288C614.231 111.091 615.426 115.571 617.815 118.728C620.204 121.8 623.404 123.336 627.415 123.336C633.047 123.336 636.844 120.605 638.807 115.144H662.103C660.226 123.507 656.258 130.077 650.199 134.856C644.14 139.635 636.674 142.024 627.799 142.024C620.802 142.024 614.572 140.531 609.111 137.544C603.735 134.557 599.511 130.291 596.439 124.744C593.452 119.197 591.959 112.712 591.959 105.288ZM717.715 68.808C725.907 68.808 732.478 71.5387 737.427 77C742.376 82.376 744.851 89.8 744.851 99.272V141H723.091V102.216C723.091 97.4373 721.854 93.7253 719.379 91.08C716.904 88.4347 713.576 87.112 709.395 87.112C705.214 87.112 701.886 88.4347 699.411 91.08C696.936 93.7253 695.699 97.4373 695.699 102.216V141H673.811V46.28H695.699V79.176C697.918 76.0187 700.947 73.5013 704.787 71.624C708.627 69.7467 712.936 68.808 717.715 68.808ZM781.949 79.688C784.082 76.36 787.026 73.672 790.781 71.624C794.536 69.576 798.93 68.552 803.965 68.552C809.853 68.552 815.186 70.0453 819.965 73.032C824.744 76.0187 828.498 80.2853 831.229 85.832C834.045 91.3787 835.453 97.8213 835.453 105.16C835.453 112.499 834.045 118.984 831.229 124.616C828.498 130.163 824.744 134.472 819.965 137.544C815.186 140.531 809.853 142.024 803.965 142.024C799.016 142.024 794.621 141 790.781 138.952C787.026 136.904 784.082 134.259 781.949 131.016V175.048H760.061V69.576H781.949V79.688ZM813.181 105.16C813.181 99.6987 811.645 95.432 808.573 92.36C805.586 89.2027 801.874 87.624 797.437 87.624C793.085 87.624 789.373 89.2027 786.301 92.36C783.314 95.5173 781.821 99.8267 781.821 105.288C781.821 110.749 783.314 115.059 786.301 118.216C789.373 121.373 793.085 122.952 797.437 122.952C801.789 122.952 805.501 121.373 808.573 118.216C811.645 114.973 813.181 110.621 813.181 105.16ZM842.584 105.16C842.584 97.8213 843.949 91.3787 846.68 85.832C849.496 80.2853 853.293 76.0187 858.072 73.032C862.851 70.0453 868.184 68.552 874.072 68.552C879.107 68.552 883.501 69.576 887.256 71.624C891.096 73.672 894.04 76.36 896.088 79.688V69.576H917.976V141H896.088V130.888C893.955 134.216 890.968 136.904 887.128 138.952C883.373 141 878.979 142.024 873.944 142.024C868.141 142.024 862.851 140.531 858.072 137.544C853.293 134.472 849.496 130.163 846.68 124.616C843.949 118.984 842.584 112.499 842.584 105.16ZM896.088 105.288C896.088 99.8267 894.552 95.5173 891.48 92.36C888.493 89.2027 884.824 87.624 880.472 87.624C876.12 87.624 872.408 89.2027 869.336 92.36C866.349 95.432 864.856 99.6987 864.856 105.16C864.856 110.621 866.349 114.973 869.336 118.216C872.408 121.373 876.12 122.952 880.472 122.952C884.824 122.952 888.493 121.373 891.48 118.216C894.552 115.059 896.088 110.749 896.088 105.288ZM955.699 81.48C958.259 77.5547 961.459 74.4827 965.299 72.264C969.139 69.96 973.406 68.808 978.099 68.808V91.976H972.083C966.622 91.976 962.526 93.1707 959.795 95.56C957.064 97.864 955.699 101.96 955.699 107.848V141H933.811V69.576H955.699V81.48ZM1028.37 122.44V141H1017.23C1009.3 141 1003.11 139.08 998.673 135.24C994.236 131.315 992.017 124.957 992.017 116.168V87.752H983.313V69.576H992.017V52.168H1013.91V69.576H1028.24V87.752H1013.91V116.424C1013.91 118.557 1014.42 120.093 1015.44 121.032C1016.47 121.971 1018.17 122.44 1020.56 122.44H1028.37ZM1113.52 69.576L1068.72 174.92H1045.17L1061.55 138.568L1032.5 69.576H1056.95L1073.46 114.248L1089.84 69.576H1113.52Z" fill="white"/>
<rect width="14.7494" height="89.028" rx="7.37471" transform="matrix(0.717734 0.696318 -0.712074 0.702105 63.3945 42.333)" fill="#3BECB8"/>
<rect width="14.7494" height="123.426" rx="7.37471" transform="matrix(0.717734 0.696318 -0.712074 0.702104 130.679 15.0115)" fill="#01C4FF"/>
<rect width="14.7494" height="205.545" rx="7.37471" transform="matrix(0.717734 0.696318 -0.712074 0.702104 176.414 8)" fill="#FAAB1C"/>
<rect width="14.7494" height="123.186" rx="7.37471" transform="matrix(0.717734 0.696317 -0.712074 0.702104 171.825 49.9729)" fill="#FF57A8"/>
<rect width="14.7494" height="88.2319" rx="7.37471" transform="matrix(0.717734 0.696317 -0.712074 0.702104 144.271 115.782)" fill="#FF4F2D"/>
</svg>
