<svg xmlns="http://www.w3.org/2000/svg" width="468.593" height="120.032" viewBox="0 0 468.593 120.032">
  <g id="Loop-logo-blue" transform="translate(-882.535 -20.786)">
    <g id="Gruppe_415" data-name="Gruppe 415" transform="translate(979.965 20.786)">
      <path id="Pfad_1182" data-name="Pfad 1182" d="M974.764,140.818A60.016,60.016,0,1,1,1034.78,80.8,60.084,60.084,0,0,1,974.764,140.818Zm0-114.627A54.61,54.61,0,1,0,1029.372,80.8,54.674,54.674,0,0,0,974.764,26.191Z" transform="translate(-914.748 -20.786)" fill="white"/>
    </g>
    <g id="Gruppe_416" data-name="Gruppe 416" transform="translate(1007.978 48.799)">
      <path id="Pfad_1183" data-name="Pfad 1183" d="M956.013,94.05a32,32,0,1,1,32-32A32.04,32.04,0,0,1,956.013,94.05Zm0-58.594A26.593,26.593,0,1,0,982.6,62.051,26.623,26.623,0,0,0,956.013,35.456Z" transform="translate(-924.01 -30.048)" fill="white"/>
    </g>
    <g id="Gruppe_417" data-name="Gruppe 417" transform="translate(1144.6 48.799)">
      <path id="Pfad_1184" data-name="Pfad 1184" d="M1001.184,94.05a32,32,0,1,1,32-32A32.04,32.04,0,0,1,1001.184,94.05Zm0-58.594a26.593,26.593,0,1,0,26.592,26.595A26.623,26.623,0,0,0,1001.184,35.456Z" transform="translate(-969.181 -30.048)" fill="white"/>
    </g>
    <g id="Gruppe_418" data-name="Gruppe 418" transform="translate(882.535 20.786)">
      <path id="Pfad_1185" data-name="Pfad 1185" d="M963.572,140.207h-24.81a29.392,29.392,0,0,1-26.528-16.886c-.236-.5-.46-1.019-.666-1.539a28.682,28.682,0,0,1-1.9-8.553,29.306,29.306,0,0,1-27.13-29.19V33.22a12.447,12.447,0,0,1,12.434-12.434h7.495A12.447,12.447,0,0,1,914.9,33.22V107.9h48.674a12.45,12.45,0,0,1,12.434,12.437v7.437A12.447,12.447,0,0,1,963.572,140.207Zm-48.465-26.9a22.936,22.936,0,0,0,1.406,6.294l.058.133c.172.439.363.874.559,1.3A23.967,23.967,0,0,0,938.762,134.8h24.81a7.037,7.037,0,0,0,7.029-7.029v-7.437a7.035,7.035,0,0,0-7.029-7.029ZM894.969,26.191a7.037,7.037,0,0,0-7.029,7.029V84.038a23.9,23.9,0,0,0,21.553,23.752V33.22a7.037,7.037,0,0,0-7.029-7.029Z" transform="translate(-882.535 -20.786)" fill="white"/>
    </g>
    <g id="Gruppe_419" data-name="Gruppe 419" transform="translate(1116.586 20.786)">
      <path id="Pfad_1186" data-name="Pfad 1186" d="M1019.935,140.818A60.016,60.016,0,1,1,1079.951,80.8,60.084,60.084,0,0,1,1019.935,140.818Zm0-114.627A54.61,54.61,0,1,0,1074.543,80.8,54.674,54.674,0,0,0,1019.935,26.191Z" transform="translate(-959.919 -20.786)" fill="white"/>
    </g>
    <g id="Gruppe_420" data-name="Gruppe 420" transform="translate(1257.729 20.786)">
      <path id="Pfad_1187" data-name="Pfad 1187" d="M1026.52,140.207h-7.5a12.431,12.431,0,0,1-12.431-12.721V96.17l4.319,3.23a50.356,50.356,0,0,0,18.628,8.484c18.066,4.295,35.173,1.821,46.932-6.79a44.371,44.371,0,0,0,18.111-35.535,38.744,38.744,0,0,0-11.487-27.6,39.557,39.557,0,0,0-28.171-11.765h-4.736a36.848,36.848,0,0,0-32.024,18.35c-.227.4-.448.8-.659,1.2-3.8,7.2-4.782,13.958-2.921,20.08a22.618,22.618,0,0,0,12.5,14.094,36.58,36.58,0,0,0,6.545,2.123V68.081a19.3,19.3,0,0,1,19.3-19.306h.36A19.394,19.394,0,0,1,1072.7,67.942,17.89,17.89,0,0,1,1066.03,82.5c-8.208,6.621-22.878,7.2-33.031,4.933a42.606,42.606,0,0,1-8.112-2.586A28.021,28.021,0,0,1,1009.4,67.388c-2.287-7.534-1.171-15.667,3.315-24.172.239-.457.49-.91.747-1.358a42.265,42.265,0,0,1,36.718-21.072h4.736a44.929,44.929,0,0,1,32,13.353,44.106,44.106,0,0,1,13.063,31.437,49.8,49.8,0,0,1-20.322,39.882c-10.653,7.8-25.1,11.094-40.713,9.5l0,13.284A12.394,12.394,0,0,1,1026.52,140.207Zm-14.527-33.581v20.963a7.03,7.03,0,0,0,7.026,7.214h7.5a7,7,0,0,0,7.02-6.718V114.217q-2.613-.445-5.254-1.074A57.538,57.538,0,0,1,1011.993,106.626Zm27.04-23.67c8.432.91,18.177-.284,23.6-4.661a12.351,12.351,0,0,0,4.661-10.32A13.977,13.977,0,0,0,1053.29,54.18h-.357a13.9,13.9,0,0,0-13.9,13.9Z" transform="translate(-1006.585 -20.786)" fill="white"/>
    </g>
  </g>
</svg>
