<svg width="100%" height="100%" viewBox="0 0 129 32" fill="none" xmlns="http://www.w3.org/2000/svg"><path d="M41.748 8.616h-3.54V29.17h16.388v-3.115H41.748V8.616zM87.057 10.482c-2.761 0-4.567 1.45-5.45 3.93-.71-2.549-2.549-3.93-5.382-3.93-2.476 0-4.175 1.168-5.13 3.22v-2.794H67.27v10.191c0 3.435-2.123 5.381-4.672 5.381-2.617 0-4.103-1.168-4.103-4.425V10.908H55.06v11.784c0 4.354 2.124 6.69 6.337 6.69 3.148 0 4.99-1.488 5.873-4.07v3.858h3.824V18.446c0-3.54 1.875-5.097 4.027-5.097 1.947 0 3.356.85 3.356 4.21v11.61h3.433V18.447c0-3.54 1.91-5.097 4.07-5.097 1.946 0 3.29.85 3.29 4.21v11.61h3.435V16.995c.014-4.247-1.969-6.511-5.65-6.511zM103.3 10.482c-5.37 0-8.846 3.717-8.846 9.485 0 5.876 3.609 9.38 8.846 9.415 5.37 0 8.85-3.68 8.85-9.415 0-5.945-3.647-9.449-8.85-9.484zm0 15.998c-3.432.034-5.273-2.371-5.309-6.513-.034-4.282 1.949-6.547 5.309-6.582 3.504-.036 5.346 2.407 5.346 6.582 0 4.247-1.956 6.477-5.346 6.513zM121.811 18.374c-3.356-.779-4.177-1.309-4.177-2.795 0-1.485 1.063-2.407 3.327-2.407 2.195 0 3.647.955 3.86 3.998l3.501-.447c-.282-4.213-3.255-6.23-7.148-6.23-4.319 0-6.937 2.124-6.937 5.167 0 3.079 1.522 4.698 6.301 5.734 3.432.708 4.388 1.31 4.388 2.972 0 1.593-1.204 2.266-3.399 2.266-2.195 0-4.251-.814-4.423-3.752l-3.645.461c.284 4.027 3.468 6.017 7.891 6.017 4.283 0 7.008-1.947 7.008-5.346 0-3.125-1.273-4.47-6.547-5.638zM31.159 8.914a8.912 8.912 0 0 1-8.914 8.916 8.916 8.916 0 0 1 0-17.83 8.914 8.914 0 0 1 8.914 8.914zM7.043 25.131V6.826H0V32h24.919v-6.869H7.043z" fill="white"></path></svg>
