<?xml version="1.0" encoding="utf-8"?>
<svg version="1.1" id="Layer_1" xmlns="http://www.w3.org/2000/svg" xmlns:xlink="http://www.w3.org/1999/xlink"
    height="32"
    viewBox="0 0 570 142"
    width="128.45070422535213"
>
    <path
    d="M321.1 102.4H304.8V58.9L278.4 102.4H266.7L240.3 58.9V102.4H224V39H246L272.5 83.7L299 39H321V102.4H321.1Z"
    fill="white"
    />
    <path
    d="M389.6 88.9H351.7L344.9 102.4H327L359.7 39H381.7L414.5 102.4H396.5L389.6 88.9ZM383.6 76.8L370.7 51.1L357.7 76.8H383.6Z"
    fill="white"
    />
    <path
    d="M451.2 68.3H491.4V102.3H479.4L478.7 92.3C472.7 98.8 463.2 103.2 449.7 103.2C426.3 103.2 412 91.6 412 70.6C412 49.6 426.3 38 452.4 38C477.8 38 490.4 47.9 491.4 63.6H474.8C473.9 58.8 469.5 51.6 452.3 51.6C431.1 51.6 428.2 63.3 428.2 70.9C428.2 78.6 431.2 90.6 452.3 90.6C468.1 90.6 474.4 83.7 474.8 78.9H451.2V68.3Z"
    fill="white"
    />
    <path
    d="M519.3 52V64.9H570V76.7H519.3V89.6H570V102.6H503V39H570V52H519.3Z"
    fill="white"
    />
    <path
    d="M112.1 141.3H73L146 0H185.1L112.1 141.3Z"
    fill="#A1A1A1"
    />
    <path
    d="M185 0H146V141.3H185V0Z"
    fill="white"
    />
    <path
    d="M39.1 141.3H0L73 0H112.1L39.1 141.3Z"
    fill="white"
    />
    <path
    d="M112 0H73V141.3H112V0Z"
    fill="white"
    />
</svg>