<?xml version="1.0" encoding="utf-8"?>
<svg version="1.1" id="Layer_1" xmlns="http://www.w3.org/2000/svg" xmlns:xlink="http://www.w3.org/1999/xlink"
    style="vertical-align:middle"
    width="119"
    height="32"
    viewBox="0 0 119 32"
    fill="none"
>
<path
    d="M0.422794 2.18796C-0.0234534 2.5544 -0.113625 3.17958 0.170841 3.68207C0.893982 4.95944 1.72015 6.17769 2.58784 7.36071C4.09999 9.42238 7.23409 12.8476 10.1074 14.7744C12.5424 13.2806 14.7805 12.6271 17.2395 11.9488C13.5523 9.83279 10.3661 6.92799 7.85169 3.49989C7.18016 2.58433 6.54277 1.63762 5.97306 0.654865C5.68974 0.166135 5.14238 -0.108209 4.59735 0.0403502C4.02368 0.196717 3.23382 0.462393 2.38663 0.897274C1.55017 1.32665 0.882038 1.81085 0.422794 2.18796Z"
    fill="url(#logo-gray-gradient)"
></path>
<path
    d="M18.4318 13.6528C15.5987 14.3323 12.9149 15.3611 10.4942 16.8933C7.0602 19.0669 4.36909 22.1778 2.58791 24.6063C1.6815 25.8421 0.974303 26.9517 0.490275 27.7583C0.400622 27.9077 0.284887 28.109 0.170223 28.3112C-0.108816 28.8035 -0.0468711 29.4169 0.371407 29.798C0.827341 30.2134 1.49759 30.7457 2.31136 31.1611C3.14862 31.5885 4.00605 31.8353 4.62241 31.9724C5.15738 32.0913 5.68203 31.8158 5.95626 31.3413C6.53031 30.348 7.17358 29.3917 7.85176 28.4671C9.41382 26.3374 11.5367 23.9592 13.9855 22.4092C16.4162 20.8707 19.342 20.0539 21.7897 19.639C22.7836 19.4706 23.7895 19.3374 24.7973 19.2907C25.4215 19.2618 25.9509 18.8202 26.0419 18.2021C26.1328 17.585 26.2233 16.7724 26.2233 15.9834C26.2233 15.2125 26.1369 14.4191 26.0482 13.8076C25.9556 13.1693 25.398 12.72 24.7531 12.7207C22.6154 12.7229 20.5025 13.1561 18.4318 13.6528Z"
    fill="white"
></path>
<path
    d="M18.4318 13.6499C15.5987 14.3294 12.9149 15.3583 10.4942 16.8905C7.0602 19.0641 4.36909 22.175 2.58791 24.6034C1.6815 25.8392 0.974303 26.9488 0.490275 27.7555C0.400623 27.9049 0.284887 28.1061 0.170224 28.3084C-0.108815 28.8006 -0.0468709 29.4141 0.371408 29.7951C0.827341 30.2105 1.49759 30.7429 2.31136 31.1583C3.14862 31.5857 4.00605 31.8324 4.62241 31.9695C5.15738 32.0885 5.68203 31.8129 5.95626 31.3384C6.53032 30.3452 7.17358 29.3889 7.85176 28.4642C9.41382 26.3345 11.5367 23.9563 13.9855 22.4063C16.4162 20.8678 19.342 20.0511 21.7897 19.6362C22.7836 19.4677 23.7895 19.3346 24.7973 19.2878C25.4215 19.2589 25.9509 18.8174 26.0419 18.1992C26.1328 17.5822 26.2233 16.7695 26.2233 15.9805C26.2233 15.2097 26.1369 14.4162 26.0482 13.8047C25.9556 13.1665 25.398 12.7172 24.7531 12.7178C22.6154 12.7201 20.5025 13.1532 18.4318 13.6499Z"
    fill="white"
></path>
<path
    d="M90.082 15.9899C90.082 20.2041 93.2223 23 97.0921 23C99.3345 23 101.169 22.0864 102.462 20.6972C102.514 20.641 102.542 20.5668 102.542 20.49V15.956C102.542 15.7845 102.403 15.6454 102.232 15.6454H96.4909C96.3194 15.6454 96.1804 15.7845 96.1804 15.956V17.1178C96.1804 17.2893 96.3194 17.4284 96.4909 17.4284H100.361C100.447 17.4284 100.516 17.4979 100.516 17.5836V19.7924C100.516 19.8353 100.499 19.8762 100.467 19.905C99.8044 20.5031 98.5543 21.1968 97.0921 21.1968C94.2759 21.1968 92.1688 19.0087 92.1688 15.9899C92.1688 12.9508 94.2759 10.8032 97.0921 10.8032C98.5602 10.8032 99.836 11.4851 100.627 12.4104C100.73 12.5304 100.903 12.5669 101.039 12.4877L102.139 11.8494C102.3 11.7562 102.344 11.5434 102.226 11.3996C101.097 10.0178 99.4696 9 97.0921 9C93.2223 9 90.082 11.7757 90.082 15.9899Z"
    fill="white"
></path>
<path
    d="M47.8522 22.4261C47.8522 22.5976 47.9912 22.7366 48.1627 22.7366H49.5677C49.7392 22.7366 49.8782 22.5976 49.8782 22.4261V9.53339C49.8782 9.36189 49.7392 9.22286 49.5677 9.22286H47.3831C47.2825 9.22286 47.1882 9.27159 47.1299 9.35361L43.177 14.9205C43.1151 15.0077 42.9857 15.0077 42.9238 14.9205L38.9709 9.35361C38.9127 9.27159 38.8183 9.22286 38.7178 9.22286H36.5332C36.3617 9.22286 36.2227 9.36189 36.2227 9.53339V22.4261C36.2227 22.5976 36.3617 22.7366 36.5332 22.7366H37.9382C38.1097 22.7366 38.2487 22.5976 38.2487 22.4261V12.324C38.2487 12.1729 38.4426 12.1108 38.5303 12.2338L42.5321 17.8402C42.5904 17.9218 42.6845 17.9703 42.7848 17.9703H43.316C43.4164 17.9703 43.5105 17.9218 43.5688 17.8402L47.5705 12.2338C47.6583 12.1108 47.8522 12.1729 47.8522 12.324V22.4261Z"
    fill="white"
></path>
<path
    d="M57.4653 22.4261C57.4653 22.5976 57.6044 22.7366 57.7759 22.7366H66.2315C66.403 22.7366 66.542 22.5976 66.542 22.4261V21.2642C66.542 21.0927 66.403 20.9537 66.2315 20.9537H59.6467C59.5609 20.9537 59.4914 20.8842 59.4914 20.7984V16.8948C59.4914 16.809 59.5609 16.7395 59.6467 16.7395H66.0897C66.2612 16.7395 66.4002 16.6005 66.4002 16.429V15.2671C66.4002 15.0956 66.2612 14.9566 66.0897 14.9566H59.6467C59.5609 14.9566 59.4914 14.8871 59.4914 14.8013V11.1611C59.4914 11.0753 59.5609 11.0058 59.6467 11.0058H66.2315C66.403 11.0058 66.542 10.8668 66.542 10.6953V9.53339C66.542 9.36189 66.403 9.22286 66.2315 9.22286H57.7759C57.6044 9.22286 57.4653 9.36189 57.4653 9.53339V22.4261Z"
    fill="white"
></path>
<path
    fill-rule="evenodd"
    clip-rule="evenodd"
    d="M79.4768 9.22286C82.0499 9.22286 83.8125 10.8842 83.8125 13.3763C83.8125 15.4057 82.6827 16.4961 81.2723 17.043C81.1792 17.0791 81.14 17.1911 81.1934 17.2756L84.3421 22.2604C84.4727 22.4672 84.3241 22.7367 84.0796 22.7367H82.4668C82.3587 22.7367 82.2584 22.6805 82.2019 22.5883L79.1404 17.5834C79.11 17.5338 79.0545 17.5054 78.9965 17.5091C78.7739 17.5233 78.5548 17.5297 78.3422 17.5297H75.9649C75.8791 17.5297 75.8096 17.5992 75.8096 17.6849V22.4261C75.8096 22.5976 75.6706 22.7366 75.4991 22.7366H74.0941C73.9226 22.7366 73.7836 22.5976 73.7836 22.4261V9.53339C73.7836 9.36189 73.9226 9.22286 74.0941 9.22286H79.4768ZM79.2134 15.7467C80.6722 15.7467 81.7257 14.7945 81.7257 13.3763C81.7257 11.958 80.6722 11.0058 79.2134 11.0058H75.9649C75.8791 11.0058 75.8096 11.0753 75.8096 11.1611V15.5915C75.8096 15.6772 75.8791 15.7467 75.9649 15.7467H79.2134Z"
    fill="white"
></path>
<path
    d="M118.596 22.4261C118.596 22.5976 118.457 22.7366 118.285 22.7366H109.83C109.658 22.7366 109.519 22.5976 109.519 22.4261V9.53339C109.519 9.36189 109.658 9.22286 109.83 9.22286H118.285C118.457 9.22286 118.596 9.36189 118.596 9.53339V10.6953C118.596 10.8668 118.457 11.0058 118.285 11.0058H111.7C111.615 11.0058 111.545 11.0753 111.545 11.161V14.8013C111.545 14.8871 111.615 14.9566 111.7 14.9566H118.143C118.315 14.9566 118.454 15.0956 118.454 15.2671V16.429C118.454 16.6005 118.315 16.7395 118.143 16.7395H111.7C111.615 16.7395 111.545 16.809 111.545 16.8948V20.7984C111.545 20.8842 111.615 20.9537 111.7 20.9537H118.285C118.457 20.9537 118.596 21.0927 118.596 21.2642V22.4261Z"
    fill="white"
></path>
<defs>
    <linearGradient
    id="logo-gray-gradient"
    x1="26.9003"
    y1="4.93551"
    x2="-0.676117"
    y2="28.3513"
    gradientUnits="userSpaceOnUse"
    >
    <stop stop-color="white"></stop>
    <stop offset="1" stop-color="white" stop-opacity="0"></stop>
    </linearGradient>
</defs>
</svg>