<?xml version="1.0" encoding="utf-8"?>
<svg viewBox="4.793 3.354 185.077 32" width="185.077" height="32" xmlns="http://www.w3.org/2000/svg">
  <path d="M 54.698 17.996 L 56.741 17.996 C 59.005 17.996 60.136 17.011 60.136 15.043 C 60.136 13.075 59.005 12.091 56.741 12.091 L 54.698 12.091 L 54.698 17.996 Z M 54.698 30.811 L 48.537 30.811 L 48.537 7.128 L 58.345 7.128 C 61.006 7.128 63.044 7.819 64.459 9.201 C 65.873 10.583 66.581 12.53 66.581 15.043 C 66.581 17.556 65.873 19.503 64.459 20.885 C 63.044 22.267 61.006 22.958 58.345 22.958 L 54.698 22.958 L 54.698 30.811 Z M 73.748 14.698 L 73.748 30.811 L 68.058 30.811 L 68.058 14.698 L 73.748 14.698 Z M 67.681 8.51 C 67.681 8.07 67.765 7.657 67.932 7.269 C 68.1 6.882 68.331 6.542 68.624 6.248 C 68.917 5.955 69.258 5.725 69.646 5.557 C 70.033 5.39 70.447 5.306 70.887 5.306 C 71.327 5.306 71.741 5.39 72.129 5.557 C 72.517 5.725 72.857 5.955 73.151 6.248 C 73.444 6.542 73.675 6.882 73.842 7.269 C 74.01 7.657 74.094 8.07 74.094 8.51 C 74.094 8.95 74.01 9.363 73.842 9.751 C 73.675 10.138 73.444 10.478 73.151 10.771 C 72.857 11.065 72.517 11.295 72.129 11.462 C 71.741 11.63 71.327 11.714 70.887 11.714 C 70.447 11.714 70.033 11.63 69.646 11.462 C 69.258 11.295 68.917 11.065 68.624 10.771 C 68.331 10.478 68.1 10.138 67.932 9.751 C 67.765 9.363 67.681 8.95 67.681 8.51 Z M 76.389 14.698 L 82.078 14.698 L 82.078 16.739 C 82.854 15.797 83.64 15.164 84.436 14.839 C 85.232 14.514 86.165 14.352 87.234 14.352 C 88.365 14.352 89.335 14.535 90.141 14.902 C 90.948 15.268 91.635 15.787 92.2 16.457 C 92.662 17.001 92.976 17.608 93.144 18.278 C 93.311 18.948 93.395 19.713 93.395 20.571 L 93.395 30.811 L 87.705 30.811 L 87.705 22.676 C 87.705 21.88 87.648 21.236 87.532 20.744 C 87.417 20.252 87.213 19.859 86.919 19.566 C 86.668 19.315 86.385 19.137 86.071 19.032 C 85.756 18.927 85.421 18.875 85.065 18.875 C 84.101 18.875 83.362 19.163 82.848 19.739 C 82.335 20.315 82.078 21.137 82.078 22.205 L 82.078 30.811 L 76.389 30.811 L 76.389 14.698 Z M 99.839 14.698 L 103.706 23.178 L 107.729 14.698 L 111.313 14.698 L 115.337 23.429 L 119.392 14.698 L 125.71 14.698 L 117.286 30.811 L 113.482 30.811 L 109.458 21.985 L 105.623 30.811 L 101.757 30.811 L 93.489 14.698 L 99.839 14.698 Z M 126.402 4.741 L 132.092 4.741 L 132.092 16.739 C 132.867 15.797 133.653 15.164 134.449 14.839 C 135.246 14.514 136.178 14.352 137.247 14.352 C 139.28 14.352 140.815 14.912 141.852 16.033 C 142.89 17.153 143.409 18.666 143.409 20.571 L 143.409 30.811 L 137.719 30.811 L 137.719 22.676 C 137.719 21.859 137.656 21.199 137.53 20.697 C 137.404 20.194 137.195 19.807 136.901 19.535 C 136.398 19.095 135.791 18.875 135.078 18.875 C 134.114 18.875 133.375 19.163 132.862 19.739 C 132.349 20.315 132.092 21.137 132.092 22.205 L 132.092 30.811 L 126.402 30.811 L 126.402 4.741 Z M 157.806 20.414 C 157.617 19.618 157.23 18.98 156.643 18.498 C 156.056 18.017 155.343 17.776 154.505 17.776 C 153.625 17.776 152.907 18.006 152.352 18.467 C 151.797 18.927 151.445 19.577 151.299 20.414 L 157.806 20.414 Z M 151.142 23.712 C 151.142 26.162 152.294 27.387 154.599 27.387 C 155.836 27.387 156.769 26.885 157.397 25.879 L 162.898 25.879 C 161.788 29.565 159.011 31.408 154.568 31.408 C 153.206 31.408 151.959 31.203 150.827 30.795 C 149.696 30.387 148.726 29.806 147.919 29.052 C 147.113 28.298 146.489 27.398 146.049 26.351 C 145.609 25.304 145.389 24.131 145.389 22.833 C 145.389 21.493 145.599 20.283 146.018 19.205 C 146.437 18.127 147.034 17.21 147.809 16.457 C 148.585 15.703 149.523 15.122 150.623 14.713 C 151.723 14.305 152.965 14.101 154.348 14.101 C 155.71 14.101 156.936 14.305 158.026 14.713 C 159.116 15.122 160.038 15.713 160.792 16.488 C 161.547 17.263 162.123 18.21 162.521 19.331 C 162.919 20.451 163.118 21.712 163.118 23.115 L 163.118 23.712 L 151.142 23.712 Z M 176.887 20.414 C 176.699 19.618 176.311 18.98 175.724 18.498 C 175.137 18.017 174.425 17.776 173.586 17.776 C 172.706 17.776 171.988 18.006 171.433 18.467 C 170.878 18.927 170.527 19.577 170.38 20.414 L 176.887 20.414 Z M 170.223 23.712 C 170.223 26.162 171.375 27.387 173.681 27.387 C 174.917 27.387 175.85 26.885 176.479 25.879 L 181.98 25.879 C 180.869 29.565 178.092 31.408 173.649 31.408 C 172.287 31.408 171.04 31.203 169.909 30.795 C 168.777 30.387 167.808 29.806 167.001 29.052 C 166.194 28.298 165.57 27.398 165.13 26.351 C 164.69 25.304 164.47 24.131 164.47 22.833 C 164.47 21.493 164.68 20.283 165.099 19.205 C 165.518 18.127 166.115 17.21 166.891 16.457 C 167.666 15.703 168.604 15.122 169.704 14.713 C 170.804 14.305 172.046 14.101 173.429 14.101 C 174.791 14.101 176.017 14.305 177.107 14.713 C 178.197 15.122 179.119 15.713 179.874 16.488 C 180.628 17.263 181.204 18.21 181.602 19.331 C 182.001 20.451 182.2 21.712 182.2 23.115 L 182.2 23.712 L 170.223 23.712 Z M 189.87 4.741 L 189.87 30.811 L 184.18 30.811 L 184.18 4.741 L 189.87 4.741 Z" fill="white"/>
  <path fill-rule="evenodd" clip-rule="evenodd" d="M 6.439 7.498 C 6.914 6.833 7.864 6.838 8.442 7.417 L 18.912 17.887 C 19.491 18.465 19.496 19.415 18.831 19.89 C 15.361 22.367 10.51 22.048 7.395 18.934 C 4.281 15.82 3.962 10.968 6.439 7.498 Z M 8.855 31.705 C 8.277 32.283 8.271 33.234 8.937 33.709 C 12.407 36.185 17.258 35.866 20.373 32.752 C 23.487 29.638 23.806 24.787 21.329 21.317 C 20.854 20.651 19.904 20.657 19.326 21.235 L 8.855 31.705 Z M 32.731 7.003 C 33.309 6.425 33.315 5.475 32.649 5 C 29.179 2.523 24.328 2.842 21.213 5.956 C 18.099 9.071 17.78 13.922 20.257 17.392 C 20.732 18.058 21.682 18.052 22.26 17.474 L 32.731 7.003 Z M 33.144 31.292 C 33.722 31.87 34.672 31.876 35.147 31.21 C 37.624 27.74 37.305 22.889 34.191 19.775 C 31.077 16.66 26.225 16.341 22.755 18.818 C 22.09 19.293 22.095 20.243 22.674 20.822 L 33.144 31.292 Z" fill="#1170FF"/>
</svg>