<svg width="267" height="46" viewBox="0 0 267 46" fill="none" xmlns="http://www.w3.org/2000/svg">
<path d="M0 5.22769C0 2.34052 2.34052 0 5.2277 0H40.7723C43.6595 0 46 2.34052 46 5.2277V40.7723C46 43.6595 43.6595 46 40.7723 46H5.22769C2.34052 46 0 43.6595 0 40.7723V5.22769Z" fill="#5A19DA"/>
<path fill-rule="evenodd" clip-rule="evenodd" d="M16.0816 9.44312C16.0816 8.20385 17.0862 7.19922 18.3255 7.19922H27.6894C28.9287 7.19922 29.9333 8.20385 29.9333 9.44312V18.807C29.9333 20.0463 28.9287 21.0509 27.6894 21.0509H18.3255C17.0862 21.0509 16.0816 20.0463 16.0816 18.807V9.44312ZM24.8703 9.3035C24.0255 9.318 23.3524 10.0125 23.3669 10.8547C23.3683 10.9312 23.3752 11.0064 23.3874 11.0797L20.7919 12.6684C20.59 12.5759 20.3646 12.526 20.1276 12.5301C19.2828 12.5446 18.6097 13.2391 18.6242 14.0813C18.6388 14.9234 19.3354 15.5944 20.1802 15.5799C20.3531 15.577 20.5188 15.5455 20.6728 15.4902L23.3782 17.1462C23.3695 17.2162 23.3657 17.2877 23.3669 17.3603C23.3815 18.2025 24.0781 18.8735 24.9229 18.859C25.7678 18.8445 26.4408 18.15 26.4263 17.3078C26.4118 16.4656 25.7151 15.7946 24.8703 15.8091C24.5474 15.8147 24.2496 15.9195 24.0057 16.094L21.5797 14.609C21.65 14.4294 21.6871 14.2335 21.6836 14.0288C21.681 13.8799 21.6571 13.7363 21.6149 13.601L24.059 12.1049C24.3069 12.2668 24.6044 12.3588 24.9229 12.3533C25.7678 12.3388 26.4408 11.6444 26.4263 10.8022C26.4118 9.95999 25.7151 9.28901 24.8703 9.3035Z" fill="white"/>
<path fill-rule="evenodd" clip-rule="evenodd" d="M7.29297 27.0346C7.29297 25.7954 8.2976 24.7907 9.53687 24.7907H18.9008C20.14 24.7907 21.1447 25.7954 21.1447 27.0346V36.3985C21.1447 37.6378 20.14 38.6424 18.9008 38.6424H9.53687C8.2976 38.6424 7.29297 37.6378 7.29297 36.3985V27.0346ZM17.7147 30.832H15.1064V28.2177C15.1064 27.7263 14.7134 27.3331 14.2188 27.3331H14.2186C14.157 27.3331 14.0969 27.3395 14.0387 27.3516C13.6364 27.4355 13.3313 27.7941 13.3313 28.2177V30.832H10.7229C10.4717 30.832 10.2438 30.938 10.0819 31.1071C9.92928 31.2649 9.83537 31.4798 9.83537 31.7166C9.83537 32.208 10.2283 32.6011 10.7229 32.6011H13.3313V35.2155C13.3313 35.7069 13.7242 36.1 14.2188 36.1H14.219C14.2806 36.1 14.3408 36.0936 14.3989 36.0815C14.8013 35.9976 15.1064 35.6391 15.1064 35.2155V32.6011H17.7147C17.9659 32.6011 18.1938 32.4952 18.3557 32.3261C18.5083 32.1684 18.6023 31.9534 18.6023 31.7166C18.6023 31.421 18.456 31.1596 18.2319 31.0008C18.0865 30.8948 17.908 30.832 17.7147 30.832Z" fill="white"/>
<path d="M30.0592 28.8164H31.6555V30.0881C31.6555 30.4966 31.9771 30.8281 32.3762 30.8281H33.5616V34.7045H30.0592V28.8164Z" fill="white"/>
<path fill-rule="evenodd" clip-rule="evenodd" d="M27.1284 24.7907C25.8891 24.7907 24.8845 25.7954 24.8845 27.0346V36.3985C24.8845 37.6378 25.8891 38.6424 27.1284 38.6424H36.4923C37.7316 38.6424 38.7362 37.6378 38.7362 36.3985V27.0346C38.7362 25.7954 37.7316 24.7907 36.4923 24.7907H27.1284ZM35.0745 29.8928L32.5668 27.3176C32.4656 27.217 32.3286 27.1578 32.1916 27.1578H29.4575C28.8753 27.1578 28.4031 27.6369 28.3913 28.2359C28.3912 28.241 28.3913 28.2461 28.3913 28.2512L28.3913 28.2589V35.262L28.3913 35.2697L28.3913 35.2771C28.3913 35.2797 28.3913 35.2824 28.3913 35.285C28.4033 35.8784 28.8754 36.3631 29.4575 36.3631H34.1632C34.7454 36.3631 35.2176 35.884 35.2294 35.285C35.2294 35.2816 35.2295 35.2782 35.2294 35.2747L35.2294 35.2705L35.2294 35.262V30.2894C35.2294 30.1354 35.1698 29.9993 35.0745 29.8928Z" fill="white"/>
<path d="M91.8746 41.7742C91.3481 41.7742 90.9214 41.3479 90.9214 40.8221V15.9382C90.9214 15.4123 91.3481 14.9861 91.8746 14.9861H98.5299C99.0564 14.9861 99.4831 15.4123 99.4831 15.9382V40.8221C99.4831 41.3479 99.0564 41.7742 98.5299 41.7742H91.8746Z" fill="#FFF"/>
<path d="M95.2285 11.8643C94.0146 11.8643 92.9757 11.4661 92.112 10.6696C91.2482 9.87319 90.8163 8.91109 90.8163 7.78329C90.8163 6.66712 91.2482 5.71083 92.112 4.91439C92.9757 4.11795 94.0087 3.71973 95.211 3.71973C96.4249 3.71973 97.4609 4.11795 98.3188 4.91439C99.1767 5.71083 99.6057 6.66712 99.6057 7.78329C99.6057 8.91109 99.1767 9.87319 98.3188 10.6696C97.4609 11.4661 96.4308 11.8643 95.2285 11.8643Z" fill="#FFF"/>
<path fill-rule="evenodd" clip-rule="evenodd" d="M59.9532 41.7742C59.4268 41.7742 59 41.3479 59 40.8221V7.00882C59 6.48299 59.4268 6.05671 59.9532 6.05671H73.8124C76.497 6.05671 78.8169 6.57701 80.7721 7.6176C82.7272 8.65819 84.2359 10.1058 85.2981 11.9602C86.3603 13.8147 86.8914 15.9685 86.8914 18.4218C86.8914 20.8867 86.3515 23.0405 85.2718 24.8834C84.1921 26.7262 82.6543 28.1534 80.6583 29.1649C78.6623 30.1765 76.2928 30.6822 73.5497 30.6822H67.6668V40.8221C67.6668 41.3479 67.24 41.7742 66.7136 41.7742H59.9532ZM67.6668 23.8806H71.9389C73.2462 23.8806 74.3405 23.6538 75.2218 23.2004C76.1031 22.747 76.7713 22.1104 77.2266 21.2907C77.6818 20.471 77.9094 19.5147 77.9094 18.4218C77.9094 17.3172 77.6818 16.361 77.2266 15.5529C76.7713 14.7448 76.1002 14.1199 75.2131 13.6781C74.326 13.2362 73.2346 13.0153 71.9389 13.0153H67.6668V23.8806Z" fill="#FFF"/>
<path d="M115.764 23.8108L111.598 15.5114C111.436 15.1894 111.107 14.9861 110.746 14.9861H104.267C103.541 14.9861 103.082 15.7647 103.433 16.3993L110.074 28.3801L103.099 40.343C102.729 40.9777 103.188 41.7742 103.923 41.7742H110.381C110.731 41.7742 111.053 41.5825 111.219 41.2749L115.764 32.8797L120.429 41.2838C120.597 41.5864 120.916 41.7742 121.263 41.7742H127.607C128.342 41.7742 128.8 40.9785 128.431 40.3438L121.472 28.3801L128.188 16.4035C128.544 15.7688 128.085 14.9861 127.357 14.9861H120.93C120.575 14.9861 120.248 15.184 120.085 15.4994L115.764 23.8108Z" fill="#FFF"/>
<path d="M133.634 41.7742C133.107 41.7742 132.681 41.3479 132.681 40.8221V15.9382C132.681 15.4123 133.107 14.9861 133.634 14.9861H140.289C140.815 14.9861 141.242 15.4123 141.242 15.9382V40.8221C141.242 41.3479 140.815 41.7742 140.289 41.7742H133.634Z" fill="#FFF"/>
<path d="M136.988 11.8643C135.774 11.8643 134.735 11.4661 133.871 10.6696C133.007 9.87319 132.575 8.91109 132.575 7.78329C132.575 6.66712 133.007 5.71083 133.871 4.91439C134.735 4.11795 135.768 3.71973 136.97 3.71973C138.184 3.71973 139.22 4.11795 140.078 4.91439C140.936 5.71083 141.365 6.66712 141.365 7.78329C141.365 8.91109 140.936 9.87319 140.078 10.6696C139.22 11.4661 138.19 11.8643 136.988 11.8643Z" fill="#FFF"/>
<path fill-rule="evenodd" clip-rule="evenodd" d="M151.742 40.6144C153.779 41.7248 156.204 42.28 159.017 42.28C161.363 42.28 163.429 41.9224 165.215 41.2074C167.001 40.4923 168.445 39.4866 169.548 38.1902C170.418 37.1676 171.047 36.0021 171.434 34.6937C171.6 34.1332 171.165 33.597 170.58 33.5801L164.513 33.4051C164.106 33.3934 163.746 33.6487 163.542 34.0015C163.35 34.3333 163.114 34.6279 162.834 34.8853C162.39 35.2922 161.859 35.6004 161.24 35.8097C160.622 36.0189 159.933 36.1236 159.174 36.1236C158.077 36.1236 157.132 35.8968 156.338 35.4434C155.544 34.99 154.931 34.3534 154.499 33.5337C154.067 32.714 153.852 31.7577 153.852 30.6648V30.4381H170.827C171.354 30.4381 171.78 30.0118 171.78 29.486V28.3104C171.78 26.1129 171.459 24.1625 170.817 22.4592C170.175 20.7559 169.277 19.3229 168.121 18.1602C166.966 16.9975 165.594 16.1197 164.007 15.5267C162.419 14.9338 160.668 14.6373 158.754 14.6373C156.046 14.6373 153.694 15.2157 151.698 16.3726C149.702 17.5294 148.155 19.1456 147.058 21.221C145.961 23.2963 145.412 25.7176 145.412 28.4848C145.412 31.3334 145.958 33.7895 147.049 35.8533C148.141 37.917 149.705 39.5041 151.742 40.6144ZM153.857 25.4851C153.899 24.6226 154.131 23.8465 154.552 23.1568C154.995 22.4301 155.597 21.8546 156.355 21.4302C157.114 21.0058 157.972 20.7936 158.929 20.7936C159.875 20.7936 160.712 20.9942 161.442 21.3953C162.171 21.7965 162.746 22.3517 163.166 23.0609C163.586 23.7701 163.802 24.5782 163.814 25.4851H153.857Z" fill="#FFF"/>
<path fill-rule="evenodd" clip-rule="evenodd" d="M176.904 41.7742C176.377 41.7742 175.951 41.3479 175.951 40.8221V7.00882C175.951 6.48299 176.377 6.05671 176.904 6.05671H190.903C193.588 6.05671 195.838 6.4346 197.653 7.19032C199.468 7.94608 200.833 9.00411 201.75 10.3644C202.666 11.7248 203.124 13.3002 203.124 15.0907C203.124 16.4511 202.838 17.6632 202.266 18.727C201.694 19.7909 200.906 20.6716 199.902 21.3692C198.899 22.0668 197.737 22.5551 196.418 22.8341V23.183C197.866 23.2527 199.205 23.6422 200.436 24.3514C201.668 25.0607 202.657 26.0461 203.404 27.3076C204.151 28.5691 204.525 30.0602 204.525 31.781C204.525 33.6994 204.034 35.4114 203.054 36.9171C202.074 38.4228 200.655 39.6087 198.799 40.4749C196.943 41.3411 194.691 41.7742 192.041 41.7742H176.904ZM184.617 34.8156H189.975C191.854 34.8156 193.24 34.4609 194.133 33.7517C195.026 33.0425 195.473 32.0542 195.473 30.7869C195.473 29.8684 195.257 29.0749 194.825 28.4063C194.393 27.7377 193.78 27.2204 192.986 26.8541C192.193 26.4879 191.241 26.3047 190.133 26.3047H184.617V34.8156ZM184.617 20.7413H189.415C190.36 20.7413 191.201 20.5844 191.936 20.2704C192.671 19.9565 193.246 19.5031 193.661 18.9101C194.075 18.3172 194.282 17.6021 194.282 16.765C194.282 15.5674 193.856 14.6257 193.004 13.9397C192.152 13.2537 191.002 12.9107 189.555 12.9107H184.617V20.7413Z" fill="#FFF"/>
<path d="M208.785 14.9861C208.259 14.9861 207.832 15.4124 207.832 15.9382V40.8221C207.832 41.3479 208.259 41.7742 208.785 41.7742H215.44C215.967 41.7742 216.394 41.3479 216.394 40.8221V27.2291C216.394 26.1594 216.624 25.2264 217.085 24.4299C217.546 23.6335 218.182 23.0115 218.994 22.5638C219.805 22.1162 220.718 21.8924 221.734 21.8924C222.247 21.8924 222.834 21.9331 223.493 22.0145C223.597 22.0273 223.698 22.0409 223.796 22.0551C224.443 22.1496 225.095 21.667 225.095 21.014V15.6493C225.095 15.2255 224.815 14.8472 224.398 14.771C224.244 14.7428 224.085 14.7186 223.922 14.6983C223.502 14.646 223.093 14.6198 222.697 14.6198C221.226 14.6198 219.936 15.0529 218.827 15.9191C217.718 16.7853 216.919 18.1021 216.429 19.8693H216.148V15.9382C216.148 15.4124 215.722 14.9861 215.195 14.9861H208.785Z" fill="#FFF"/>
<path d="M229.961 41.7742C229.435 41.7742 229.008 41.3479 229.008 40.8221V15.9382C229.008 15.4123 229.435 14.9861 229.961 14.9861H236.617C237.143 14.9861 237.57 15.4123 237.57 15.9382V40.8221C237.57 41.3479 237.143 41.7742 236.617 41.7742H229.961Z" fill="#FFF"/>
<path d="M233.315 11.8643C232.101 11.8643 231.062 11.4661 230.199 10.6696C229.335 9.87319 228.903 8.91109 228.903 7.78329C228.903 6.66712 229.335 5.71083 230.199 4.91439C231.062 4.11795 232.095 3.71973 233.298 3.71973C234.512 3.71973 235.547 4.11795 236.405 4.91439C237.263 5.71083 237.692 6.66712 237.692 7.78329C237.692 8.91109 237.263 9.87319 236.405 10.6696C235.547 11.4661 234.517 11.8643 233.315 11.8643Z" fill="#FFF"/>
<path d="M253.851 23.8108L249.685 15.5114C249.523 15.1894 249.193 14.9861 248.833 14.9861H242.354C241.628 14.9861 241.168 15.7647 241.52 16.3993L248.16 28.3801L241.186 40.343C240.816 40.9777 241.274 41.7742 242.01 41.7742H248.468C248.818 41.7742 249.139 41.5825 249.306 41.2749L253.851 32.8797L258.516 41.2838C258.684 41.5864 259.003 41.7742 259.35 41.7742H265.694C266.429 41.7742 266.887 40.9785 266.518 40.3438L259.558 28.3801L266.275 16.4035C266.631 15.7688 266.171 14.9861 265.443 14.9861H259.017C258.661 14.9861 258.335 15.184 258.171 15.4994L253.851 23.8108Z" fill="#FFF"/>
</svg>
