<?xml version="1.0" encoding="utf-8"?>
<!-- Generator: Adobe Illustrator 23.0.6, SVG Export Plug-In . SVG Version: 6.00 Build 0)  -->
<svg version="1.1" id="Logo" xmlns="http://www.w3.org/2000/svg" xmlns:xlink="http://www.w3.org/1999/xlink" x="0px" y="0px"
	 viewBox="0 0 288 107.98" style="enable-background:new 0 0 288 107.98;" xml:space="preserve">
<style type="text/css">
	.st0{fill:#FFFFFF;}
	.st1{fill:#FF6000;}
</style>
<g>
	<g>
		<path class="st0" d="M20.96,36.82h-9.05v16.03H0.01V0h21.58c12.86,0,17.62,5.08,17.62,15v6.9C39.21,31.82,33.82,36.82,20.96,36.82
			z M27.31,16.11c0-3.81-1.35-5.56-6.35-5.56h-9.05v15.95h9.05c5.24,0,6.35-1.98,6.35-5.79V16.11z"/>
		<path class="st0" d="M64.85,36.43h-6.98v16.43h-11.9V0h21.98C80.8,0,85.56,5.08,85.56,15v6.51c0,6.59-2.38,11.03-7.7,13.25
			l12.78,18.09H76.51L64.85,36.43z M73.65,16.11c0-3.97-1.51-5.56-6.35-5.56h-9.44v15.55h9.44c5.08,0,6.35-1.83,6.35-5.79V16.11z"/>
		<path class="st0" d="M95,52.85V0h33.25v10.55h-21.35v9.68h19.68v10.55h-19.68V42.3h21.35v10.55H95z"/>
		<path class="st0" d="M166.11,52.85h-16.98L134.2,0h12.22l11.19,42.06L168.8,0h12.22L166.11,52.85z"/>
		<path class="st0" d="M186.98,52.85V0h33.25v10.55h-21.35v9.68h19.68v10.55h-19.68V42.3h21.35v10.55H186.98z"/>
		<path class="st0" d="M231.34,52.85V0h11.9v52.85H231.34z"/>
		<path class="st0" d="M255.15,52.85V0h11.9v42.3H288v10.55H255.15z"/>
	</g>
	<g>
		<path class="st1" d="M18.5,96.62h5.3c7.23,0,7.23-4.41,7.23-9.08V74.8H11.26v12.74C11.26,92.42,11.26,96.62,18.5,96.62z
			 M18.06,81.48h6.16v8.46h-6.16V81.48z"/>
		<polygon class="st1" points="106.05,100.56 119.55,100.56 119.55,93.43 113.18,93.43 113.18,81.94 128.25,81.94 128.25,74.81 
			106.05,74.81 		"/>
		<path class="st1" d="M0,63.45v24.16c0,13.71,5.85,20.37,17.88,20.37h6.59c11.81,0,17.8-7.06,17.8-20.98v-5.07l52.46,0v11.49h-6.83
			v7.13h13.97V74.81l-66.73,0V87c0,11.49-4.27,13.84-10.67,13.84h-6.59c-6.8,0-10.74-2.17-10.74-13.24V70.58h121.12v-7.13H0z"/>
	</g>
</g>
</svg>
