<svg width="97" height="31" viewBox="0 0 97 31" fill="none" xmlns="http://www.w3.org/2000/svg">
<path d="M38.2102 9.14131H43.3667V26.3298H48.317V9.14131H53.4736V4.80981H38.2102V9.14131ZM55.1924 4.87857V26.3985H60.1427V17.873L66.7431 26.3298H72.9996L65.5742 17.4605C68.2556 16.6355 70.0432 14.4354 70.0432 11.2039C70.0432 7.00994 67.0181 4.80981 62.9616 4.80981H55.1924V4.87857ZM60.1427 14.3666V8.72878H60.6927C62.5491 8.72878 64.8179 8.86629 64.8179 11.5477C64.8179 14.2291 62.6178 14.3666 60.6927 14.3666H60.1427ZM91.9757 26.3298H96.926L95.0009 4.80981H89.7756L84.9628 17.1855L80.1501 4.80981H74.9248L72.8621 26.3298H77.8124L78.8437 13.6103H78.9812L83.4502 26.261H86.3379L90.8069 13.6103H90.9444L91.9757 26.3298Z" fill="white"/>
<path d="M18.2702 28.2081C18.2702 26.9706 17.3764 25.9393 16.2076 25.733V19.0639C16.8951 18.9951 17.4451 18.7201 17.9952 18.3076L23.2204 23.5329C22.8079 24.2204 22.8767 25.183 23.4955 25.733C24.183 26.4205 25.3518 26.4205 26.0394 25.733C26.7269 25.0455 26.7269 23.8766 26.0394 23.1891C25.4206 22.5703 24.5268 22.5016 23.8392 22.9141L18.6139 17.6888C19.0265 17.2075 19.3015 16.5887 19.3702 15.9012H26.0394C26.2456 17.07 27.2769 17.9638 28.5145 17.9638C29.8896 17.9638 30.9896 16.8638 30.9896 15.4887C30.9896 14.1136 29.7521 13.151 28.377 13.151C27.1394 13.151 26.1081 14.0448 25.9019 15.2137H19.2327C19.164 14.5261 18.889 13.9073 18.4764 13.4261L23.7017 8.20077C24.3893 8.61329 25.3518 8.54454 25.9019 7.92575C26.5894 7.23821 26.5894 6.0694 25.9019 5.38186C25.2143 4.69432 24.0455 4.69432 23.358 5.38186C22.7392 6.00065 22.6704 6.89444 23.0829 7.58198L17.9952 12.876C17.5139 12.4635 16.8951 12.1885 16.2076 12.1197V5.51937C17.3764 5.31311 18.2702 4.2818 18.2702 3.04423C18.2702 1.66915 17.1701 0.569092 15.795 0.569092C14.42 0.569092 13.3199 1.66915 13.3199 3.04423C13.3199 4.2818 14.2137 5.31311 15.3825 5.51937V12.1197C14.695 12.1885 14.0762 12.4635 13.5949 12.876L8.43837 7.71949C8.8509 7.03195 8.78214 6.0694 8.16336 5.51937C7.47582 4.83183 6.307 4.83183 5.61947 5.51937C4.93193 6.20691 4.93193 7.37572 5.61947 8.06326C6.23825 8.68204 7.13205 8.7508 7.81959 8.33828L12.9761 13.4948C12.5636 13.9761 12.2886 14.5949 12.2198 15.2824H5.61947C5.4132 14.1136 4.3819 13.2198 3.14433 13.2198C1.76925 13.2198 0.669189 14.3199 0.669189 15.6949C0.669189 17.07 1.76925 18.1701 3.14433 18.1701C4.3819 18.1701 5.4132 17.2763 5.61947 16.1075H12.2198C12.2886 16.795 12.5636 17.4138 12.9761 17.8951L7.81959 23.0516C7.13205 22.6391 6.1695 22.7078 5.61947 23.3266C4.93193 24.0141 4.93193 25.183 5.61947 25.8705C6.307 26.558 7.47582 26.558 8.16336 25.8705C8.78214 25.2517 8.8509 24.3579 8.43837 23.6704L13.6637 18.4451C14.1449 18.8576 14.7637 19.1326 15.4513 19.2014V25.8705C14.2825 26.0768 13.3887 27.1081 13.3887 28.3456C13.3887 29.7207 14.4887 30.8208 15.8638 30.8208C17.1701 30.752 18.2702 29.5832 18.2702 28.2081Z" fill="white"/>
</svg>
