<svg width="104" height="27" viewBox="0 0 104 27" fill="none" xmlns="http://www.w3.org/2000/svg">
<path d="M25.7265 9.69732V5.29113C25.4763 5.25265 25.1877 5.21417 24.8222 5.17569C24.4566 5.15645 24.1295 5.13721 23.8409 5.13721C22.571 5.13721 21.4357 5.48354 20.4352 6.15698C19.4347 6.84966 18.742 7.81171 18.3379 9.06237H18.107V5.27189H13.0082V26.4178H18.261V14.4114C18.261 13.4878 18.4726 12.6797 18.9152 11.9678C19.3577 11.2558 19.9542 10.6979 20.7046 10.313C21.455 9.90897 22.3208 9.71656 23.2829 9.71656C23.3598 9.69732 25.7265 9.69732 25.7265 9.69732Z" fill="white"/>
<path d="M67.614 7.27332C66.6904 6.38823 65.6129 5.73404 64.4007 5.31073C63.1885 4.88743 61.8994 4.67578 60.5525 4.67578C58.4553 4.67578 56.6081 5.13757 55.0496 6.08037C53.4911 7.02318 52.2789 8.31233 51.4131 9.9863C50.5472 11.6603 50.1239 13.6036 50.1239 15.7971C50.1239 18.0483 50.5472 19.9916 51.4131 21.6463C52.2789 23.3011 53.5103 24.571 55.1073 25.4753C56.7043 26.3796 58.6092 26.8222 60.8219 26.8222C62.5343 26.8222 64.0544 26.572 65.382 26.0525C66.7096 25.5523 67.8064 24.8211 68.653 23.8975C69.4996 22.974 70.0961 21.8772 70.4039 20.6266L65.5552 20.0878C65.3243 20.6843 64.9779 21.2038 64.5354 21.6079C64.0929 22.0119 63.5541 22.3198 62.9384 22.5314C62.3227 22.7431 61.6493 22.8393 60.8796 22.8393C59.7444 22.8393 58.7631 22.6084 57.9165 22.1274C57.0699 21.6656 56.4157 20.9729 55.9539 20.0878C55.4921 19.222 55.2612 18.2022 55.2612 17.0093H70.6156V15.4507C70.6156 13.5651 70.3462 11.9489 69.8074 10.5828C69.2687 9.29362 68.5375 8.1584 67.614 7.27332ZM55.2805 13.6613C55.3382 12.8147 55.5499 12.0451 55.9539 11.3139C56.3965 10.5058 57.0314 9.85161 57.8203 9.35134C58.6284 8.85108 59.552 8.60094 60.6102 8.60094C61.6108 8.60094 62.4766 8.8126 63.227 9.25514C63.9774 9.69768 64.5547 10.2942 64.978 11.0446C65.4013 11.795 65.6129 12.6608 65.6321 13.6421H55.2805V13.6613Z" fill="#2D736D"/>
<path d="M42.2733 5.3877V17.2979C42.2733 18.3946 42.0425 19.3182 41.5614 20.0493C41.0996 20.7805 40.5032 21.3385 39.772 21.7041C39.0409 22.0696 38.2905 22.262 37.5208 22.262C36.2702 22.262 35.2504 21.858 34.4807 21.0499C33.7111 20.2417 33.3263 19.145 33.3263 17.7789V5.3877H28.0735V18.5293C28.0735 20.261 28.3813 21.7425 29.0163 22.9547C29.6512 24.1669 30.5171 25.1097 31.6331 25.7447C32.749 26.3796 34.0382 26.7067 35.5005 26.7067C37.1745 26.7067 38.5791 26.3219 39.7335 25.5523C40.888 24.7826 41.6961 23.7821 42.2156 22.5699H42.4465V26.4373H47.5261V5.3877H42.2733Z" fill="white"/>
<path d="M102.94 8.27369C102.402 7.31164 101.69 6.542 100.805 5.98401C99.9195 5.42602 98.9574 5.02196 97.88 4.77183C96.8217 4.5217 95.7442 4.40625 94.6667 4.40625C88.4519 4.40625 86.4316 8.33141 86.1045 9.06257H85.8736V5.29134C85.6427 5.25285 85.3348 5.21437 84.9692 5.17589C84.6037 5.15665 84.2766 5.13741 83.988 5.13741C82.718 5.13741 81.5828 5.48375 80.5823 6.15718C79.5818 6.83062 78.8891 7.81191 78.485 9.06257H78.2541V5.27209H73.1553V26.418H78.4081V14.4116C78.4081 13.488 78.6197 12.6799 79.0623 11.968C79.5048 11.256 80.1013 10.6981 80.8517 10.3132C81.6021 9.92842 82.4679 9.71677 83.43 9.71677C83.4877 9.71677 84.7768 9.71677 85.4503 9.71677C85.7004 9.71677 85.8543 9.71677 85.8543 9.71677H91.0109C91.2033 9.52436 91.415 9.33195 91.6651 9.15878C92.4155 8.62003 93.4353 8.33141 94.7244 8.33141C95.9366 8.33141 96.8794 8.62003 97.5336 9.2165C98.1878 9.79373 98.5149 10.6211 98.5149 11.6986V11.7756C98.5149 12.2566 98.3225 12.6222 97.9569 12.853C97.5913 13.0839 96.9949 13.2571 96.1867 13.3533C95.3786 13.4688 94.3204 13.5842 93.012 13.7189C91.9345 13.8343 90.8762 14.0075 89.8757 14.2576C88.8559 14.5078 87.9516 14.8734 87.1627 15.3544C86.3546 15.8354 85.7196 16.4704 85.2579 17.2785C84.7961 18.0866 84.5652 19.0871 84.5652 20.3186C84.5652 21.7424 84.8923 22.9353 85.5465 23.9166C86.2007 24.8787 87.0858 25.6291 88.221 26.1101C89.3562 26.6104 90.6261 26.8605 92.0307 26.8605C93.1851 26.8605 94.2049 26.7066 95.0708 26.3795C95.9366 26.0716 96.6485 25.6483 97.2258 25.1288C97.803 24.6093 98.2455 24.0513 98.5726 23.4356H98.7458V26.418H103.806V11.8718C103.748 10.4287 103.479 9.23574 102.94 8.27369ZM98.4957 18.6253C98.4957 19.4335 98.284 20.1646 97.8607 20.8381C97.4374 21.5115 96.8409 22.0695 96.0713 22.4735C95.3017 22.8776 94.3781 23.0893 93.3198 23.0893C92.2231 23.0893 91.3188 22.8584 90.6261 22.3773C89.9142 21.8963 89.5678 21.1844 89.5678 20.2416C89.5678 19.5874 89.741 19.0486 90.1066 18.6253C90.4722 18.202 90.9532 17.8749 91.5689 17.6441C92.1846 17.4132 92.8965 17.24 93.6662 17.1438C94.0125 17.1053 94.4166 17.0476 94.8976 16.9706C95.3786 16.9129 95.8404 16.8359 96.3407 16.7397C96.8217 16.6628 97.2642 16.5473 97.6491 16.4511C98.0339 16.3357 98.3225 16.2202 98.4764 16.0855V18.6253H98.4957Z" fill="#2D736D"/>
<path d="M5.27289 5.27203V9.60125V5.27203H0.000854492V4.17529V5.27203H5.27289Z" fill="white"/>
<path d="M9.98693 22.0118V26.3218H6.67748C5.48453 26.3218 4.3878 26.1294 3.40651 25.7253C2.34825 25.302 1.52089 24.6286 0.905176 23.7242C0.289464 22.8199 -0.0183916 21.6847 0.000849358 20.3378V10.5249H5.27288V19.4912C5.27288 20.1839 5.38833 20.7034 5.59998 21.069C5.81163 21.4345 6.10024 21.6847 6.46582 21.8194C6.8314 21.9541 7.21622 22.0118 7.63953 22.0118H9.96769C9.98693 22.0118 9.98693 22.0118 9.98693 22.0118Z" fill="white"/>
<path d="M10.545 5.27197H5.27295V10.544H10.545V5.27197Z" fill="white"/>
<path d="M5.2735 0H0.00146484V5.27203H5.2735V0Z" fill="white"/>
</svg>
