<svg width="171" height="43" viewBox="0 0 171 43" fill="none" xmlns="http://www.w3.org/2000/svg">
<path d="M46.1744 17.054C43.1341 17.054 40.7114 19.2154 39.2388 22.707L36.5548 21.6382C38.4312 16.3889 42.7541 12.4936 48.8821 12.4936C55.4852 12.4936 59.6418 16.5315 59.6418 23.0633V36.1982C59.6418 37.8133 60.3069 38.6209 61.4707 38.6209C62.492 38.6209 63.2996 38.2171 63.9647 37.552L65.3185 39.4285C63.8934 40.9723 61.6132 42.73 59.048 42.73C55.889 42.73 53.3237 41.2574 52.2549 38.0271C50.4972 40.1885 47.3382 42.6825 43.4429 42.6825C39.4763 42.6825 36.0322 40.046 36.0322 35.6044C36.0322 31.234 39.8088 29.2151 44.1792 27.5999L52.0649 24.7734V23.1583C52.0174 19.738 50.3547 17.054 46.1744 17.054ZM47.5757 29.0963C45.0105 30.0464 43.3241 31.329 43.3241 33.9417C43.3241 36.8395 44.9393 38.3834 47.0294 38.3834C48.9059 38.3834 50.7348 37.3145 52.0174 35.9607V27.4099L47.5757 29.0963Z" fill="white"/>
<path d="M79.0232 39.1909H82.5147V42.0174H67.9784V39.1909H71.4225V2.85025H67.0996V0.0237541H79.0232V39.1909Z" fill="white"/>
<path d="M84.8184 27.5524C84.8184 18.3366 92.0152 12.4698 99.4259 12.4698C106.765 12.4698 113.962 18.3366 113.962 27.5524C113.962 36.8395 106.765 42.7063 99.4259 42.7063C92.0152 42.7063 84.8184 36.8395 84.8184 27.5524ZM99.4259 15.1538C95.4593 15.1538 92.9653 19.4054 92.9653 27.5524C92.9653 35.7706 95.4593 39.9985 99.4259 39.9985C103.321 39.9985 105.886 35.7469 105.886 27.5524C105.886 19.4054 103.321 15.1538 99.4259 15.1538Z" fill="white"/>
<path d="M131.325 42.0174H116.789V39.1909H120.281V15.9614H116.789V13.1349H127.834V17.3865C130.256 15.1538 133.487 12.4698 137.596 12.4698C143.581 12.4698 146.075 16.9827 146.075 22.6357V39.1909H149.567V42.0174H135.031V39.1909H138.522V23.6333C138.522 20.1418 137.501 17.0302 133.748 17.0302C131.468 17.0302 129.568 17.8378 127.834 19.3104V39.1672H131.325V42.0174Z" fill="white"/>
<path d="M160.137 7.14938L163.106 0H160.28L159.164 3.63407L158.047 0H155.221L158.166 7.14938H160.137Z" fill="#FFAD15"/>
<path d="M158.166 15.2013L155.221 22.327H158.047L159.164 18.7166L160.28 22.327H163.106L160.137 15.2013H158.166Z" fill="#FFAD15"/>
<path d="M155.126 10.1896L148 7.22063V10.0471L151.61 11.1635L148 12.2798V15.1063L155.126 12.1611V10.1896Z" fill="#FFAD15"/>
<path d="M170.327 7.22063L163.178 10.1896V12.1611L170.327 15.1063V12.2798L166.693 11.1635L170.327 10.0471V7.22063Z" fill="#FFAD15"/>
<path d="M155.6 13.3249L148.475 16.2702L150.47 18.2654L153.819 16.5077L152.061 19.8567L154.056 21.8519L157.002 14.7263L155.6 13.3249Z" fill="#FFAD15"/>
<path d="M162.702 9.02579L169.828 6.05678L167.833 4.06161L164.484 5.84301L166.265 2.49397L164.27 0.498795L161.301 7.62442L162.702 9.02579Z" fill="#FFAD15"/>
<path d="M161.301 14.7263L164.27 21.8519L166.265 19.8567L164.484 16.5077L167.833 18.2654L169.828 16.2702L162.702 13.3249L161.301 14.7263Z" fill="#FFAD15"/>
<path d="M157.002 7.62442L154.056 0.498795L152.061 2.49397L153.819 5.84301L150.47 4.06161L148.475 6.05678L155.6 9.02579L157.002 7.62442Z" fill="#FFAD15"/>
<path d="M37.0057 6.00927L22.1369 42.7063H19.1679L3.89535 6.00927H0V2.85025H17.2203V6.00927H12.5649L22.9208 32.3266L33.2292 6.00927H27.4337V2.85025H41.1624V6.00927H37.0057Z" fill="white"/>
</svg>
