<svg width="559" height="701" viewBox="0 0 559 701" fill="none" xmlns="http://www.w3.org/2000/svg">
<path d="M0 524.491H21.3706L52.9296 627.617L86.2281 524.491H105.114L136.673 627.617L169.723 524.491H190.348L148.104 651.224H125.739L95.1739 557.044L63.3664 651.224L41.0018 651.472L0 524.491Z" fill="white"/>
<path d="M322.94 524.491V651.224H305.297L302.563 630.847C291.961 645.426 277.465 652.715 259.076 652.715C247.314 652.715 236.794 650.147 227.517 645.011C218.406 639.876 211.199 632.421 205.898 622.647C200.763 612.873 198.195 601.276 198.195 587.857C198.195 575.101 200.763 563.836 205.898 554.062C211.199 544.288 218.489 536.667 227.766 531.2C237.043 525.733 247.48 523 259.076 523C269.182 523 277.879 524.905 285.168 528.715C292.458 532.526 298.256 537.744 302.563 544.371L305.297 524.491H322.94ZM261.064 634.575C269.182 634.575 276.388 632.669 282.683 628.859C289.144 624.883 294.114 619.416 297.593 612.458C301.072 605.335 302.812 597.3 302.812 588.354C302.812 579.243 301.072 571.125 297.593 564.002C294.114 556.713 289.144 551.08 282.683 547.104C276.388 543.128 269.182 541.14 261.064 541.14C248.474 541.14 238.285 545.53 230.499 554.31C222.879 562.925 219.068 574.107 219.068 587.857C219.068 601.608 222.879 612.873 230.499 621.653C238.285 630.267 248.474 634.575 261.064 634.575Z" fill="white"/>
<path d="M415.058 524.491V544.371H404.87C392.776 544.371 384.079 548.429 378.777 556.547C373.642 564.664 371.074 574.687 371.074 586.615V651.224H350.697V524.491H368.341L371.074 543.625C374.719 537.827 379.44 533.188 385.238 529.709C391.037 526.23 399.071 524.491 409.342 524.491H415.058Z" fill="white"/>
<path d="M497.555 523C509.317 523 519.754 525.568 528.865 530.703C538.142 535.839 545.349 543.294 550.484 553.068C555.785 562.842 558.436 574.439 558.436 587.857C558.436 600.614 555.785 611.879 550.484 621.653C545.349 631.427 538.142 639.048 528.865 644.514C519.588 649.981 509.151 652.715 497.555 652.715C487.283 652.715 478.503 650.893 471.214 647.248C463.925 643.438 458.209 638.302 454.068 631.841V700.923H433.691V524.491H451.334L454.068 544.868C464.67 530.289 479.166 523 497.555 523ZM495.567 634.575C508.157 634.575 518.263 630.267 525.883 621.653C533.669 612.873 537.562 601.608 537.562 587.857C537.562 574.107 533.669 562.925 525.883 554.31C518.263 545.53 508.157 541.14 495.567 541.14C487.449 541.14 480.16 543.128 473.699 547.104C467.404 550.914 462.517 556.381 459.038 563.505C455.559 570.463 453.819 578.415 453.819 587.36C453.819 596.472 455.559 604.672 459.038 611.962C462.517 619.085 467.404 624.635 473.699 628.611C480.16 632.587 487.449 634.575 495.567 634.575Z" fill="white"/>
<path d="M278.044 424.42H66.3858C32.1232 424.42 4.3479 396.645 4.3479 362.381V121.525C4.3479 87.2616 32.1232 59.4858 66.3858 59.4858H369.276L278.044 424.42Z" fill="#006DA8"/>
<path d="M279.652 0H491.311C525.572 0 553.348 27.7758 553.348 62.0389V302.895C553.348 337.159 525.572 364.934 491.311 364.934H188.42L279.652 0Z" fill="#9F73FF"/>
<path d="M279.652 0H491.311C525.572 0 553.348 27.7758 553.348 62.0389V302.895C553.348 337.159 525.572 364.934 491.311 364.934H188.42L279.652 0Z" fill="url(#paint0_linear_130_550)"/>
<defs>
<linearGradient id="paint0_linear_130_550" x1="312.988" y1="298.7" x2="612.844" y2="54.4659" gradientUnits="userSpaceOnUse">
<stop stop-color="#01A4FF"/>
<stop offset="0.791667" stop-color="#01FFC2"/>
</linearGradient>
</defs>
</svg>
