<?xml version="1.0" encoding="UTF-8"?>
<svg width="1922px" height="320px" viewBox="0 0 1922 320" version="1.1" xmlns="http://www.w3.org/2000/svg" xmlns:xlink="http://www.w3.org/1999/xlink">
    <!-- Generator: Sketch 50.2 (55047) - http://www.bohemiancoding.com/sketch -->
    <title>horizontal-reversed@3x</title>
    <desc>Created with Sketch.</desc>
    <defs></defs>
    <g id="horizontal-reversed" stroke="none" stroke-width="1" fill="none" fill-rule="evenodd">
        <path d="M156.602338,281.798724 C156.367077,281.860777 156.130816,281.918828 155.894554,281.979881 C154.928485,282.226094 153.960413,282.462299 152.989339,282.685492 C152.759084,282.737537 152.528829,282.788582 152.297573,282.840627 C151.329501,283.057815 150.360429,283.263994 149.387352,283.458162 C149.132069,283.509207 148.876787,283.557248 148.621504,283.607292 C147.680462,283.788449 146.736418,283.961599 145.789369,284.121738 C145.488036,284.172782 145.186702,284.220823 144.884368,284.269866 C143.988376,284.414992 143.092384,284.553112 142.193389,284.679221 C141.828986,284.730265 141.464582,284.777306 141.100179,284.825348 C140.264254,284.935443 139.427328,285.038532 138.588399,285.132614 C138.15592,285.180656 137.724443,285.223693 137.290963,285.267731 C136.518108,285.345799 135.746253,285.418862 134.973398,285.482918 C134.473845,285.523953 133.973291,285.559984 133.472737,285.595015 C132.76195,285.645058 132.051163,285.692099 131.338374,285.730132 C130.780757,285.760158 130.222139,285.783178 129.664522,285.807199 C129.004791,285.833221 128.34406,285.858243 127.68433,285.873256 C127.082664,285.88927 126.480998,285.897277 125.878331,285.904283 C125.25364,285.910288 124.627947,285.914292 124.003256,285.91229 C123.381567,285.909287 122.76088,285.90028 122.140193,285.888269 C121.520508,285.876259 120.900822,285.863247 120.281136,285.842229 C119.673463,285.822212 119.066792,285.794188 118.458118,285.765162 C117.813404,285.734135 117.168691,285.700106 116.524978,285.65907 C116.286715,285.644057 116.048451,285.637051 115.811188,285.620037 C115.590945,285.605024 115.371702,285.576999 115.152459,285.560985 C113.783944,285.458897 112.41543,285.33579 111.050919,285.189663 C110.857706,285.167644 110.663491,285.152631 110.470277,285.129611 C110.287074,285.109594 110.103871,285.095582 109.920668,285.073563 C108.841474,284.947453 107.770288,284.78231 106.696099,284.629178 C106.229583,284.562119 105.760063,284.508073 105.294548,284.43601 C103.940049,284.225828 102.593558,283.981616 101.248069,283.727396 C100.90569,283.662339 100.561309,283.609293 100.21893,283.541234 C98.8313944,283.266997 97.4528686,282.958729 96.0773461,282.638452 C95.7720081,282.568391 95.464668,282.506337 95.1603311,282.433274 C93.8058319,282.107992 92.4623449,281.74868 91.1208601,281.378359 C90.7914955,281.28728 90.4601287,281.207211 90.1317653,281.113129 C88.8583558,280.751816 87.5959586,280.357474 86.3365646,279.955125 C85.9401258,279.829016 85.5406837,279.713916 85.145246,279.583803 C83.9819584,279.200471 82.8296831,278.786112 81.6774077,278.36875 C81.1928714,278.192597 80.7033295,278.029456 80.2187932,277.848299 C79.1786419,277.456959 78.1515051,277.036595 77.1213649,276.619233 C76.5357166,276.382027 75.946064,276.15483 75.3644202,275.908617 C74.4524108,275.522282 73.5534157,275.109924 72.6514173,274.703572 C71.9646572,274.394304 71.2748938,274.095045 70.5931392,273.772765 C69.7982594,273.396439 69.0153929,272.996092 68.2285219,272.603752 C67.4596709,272.22142 66.6868155,271.848097 65.9259734,271.44875 C65.2191911,271.078429 64.5244221,270.685088 63.8246475,270.301756 C63.0057411,269.851365 62.1828303,269.409983 61.3729339,268.943578 C60.7172081,268.564249 60.0734956,268.163902 59.4237765,267.772563 C58.5958601,267.274131 57.7639393,266.782705 56.946034,266.264255 C56.2873049,265.846894 55.6415902,265.408514 54.99087,264.97814 C54.2110068,264.464695 53.426138,263.957255 52.6582882,263.425795 C51.9304826,262.921357 51.2186948,262.3939 50.5019014,261.87445 C49.8381667,261.393032 49.1684254,260.922624 48.5137008,260.428196 C47.6367301,259.766622 46.7797816,259.080027 45.9198298,258.394432 C45.4553156,258.024111 44.9827926,257.665801 44.523284,257.288474 C43.3960363,256.364673 42.2928152,255.411847 41.1986041,254.448011 C41.049439,254.316897 40.8942673,254.193791 40.7461033,254.061676 C40.7360922,254.052668 40.7260811,254.041659 40.71607,254.03165 C39.2554534,252.731523 37.8168611,251.406374 36.417312,250.036186 C33.7283357,247.401902 33.6822848,243.088162 36.3172012,240.399831 C38.9531187,237.7105 43.2688956,237.665461 45.9558697,240.298744 C47.2663201,241.582857 48.6188171,242.821931 49.9903352,244.036985 C51.0475053,244.974798 52.1206931,245.892594 53.2119009,246.78837 C53.5502754,247.065611 53.8986611,247.33084 54.24104,247.603077 C55.0759641,248.272657 55.9118894,248.939235 56.7648334,249.582793 C57.2934185,249.981138 57.8340169,250.360467 58.3676075,250.748804 C59.0613754,251.25224 59.7511388,251.761682 60.4559189,252.250105 C61.0986303,252.69349 61.7543561,253.116857 62.4050763,253.54723 C63.0277655,253.959588 63.6454492,254.378951 64.2751462,254.778297 C64.9729185,255.218679 65.6837052,255.638043 66.3894864,256.064412 C66.9981601,256.43073 67.6028294,256.806055 68.2175097,257.162364 C68.9172843,257.565714 69.6290721,257.947045 70.3368555,258.336382 C70.9825702,258.689688 71.6232794,259.052003 72.2760018,259.393298 C72.9367331,259.7406 73.6094778,260.064881 74.2772168,260.39817 C74.9940102,260.75648 75.7088014,261.121797 76.4346047,261.465095 C77.0322662,261.747339 77.6389377,262.009567 78.2406037,262.280802 C79.0535034,262.647119 79.8633999,263.019442 80.6843085,263.366743 C81.2018813,263.585933 81.7274631,263.787108 82.2480393,263.998291 C83.1670565,264.370614 84.0840715,264.745939 85.0120986,265.094241 C85.4435762,265.256382 85.8800593,265.402508 86.3135391,265.558644 C87.340676,265.930966 88.3698151,266.301288 89.406963,266.642583 C89.7573509,266.758684 90.1127442,266.859772 90.4651343,266.97287 C91.5903797,267.33018 92.7166263,267.682485 93.8518829,268.005765 C94.1462086,268.089838 94.4455399,268.161901 94.7418679,268.243972 C95.9351887,268.572256 97.1315129,268.892534 98.3358459,269.182786 C98.6101495,269.248843 98.8894586,269.303891 99.1647634,269.367946 C100.389119,269.652193 101.615476,269.92643 102.849842,270.170642 C103.152177,270.229693 103.458516,270.277735 103.762853,270.335785 C104.965183,270.561981 106.169517,270.780171 107.379856,270.968334 C107.785305,271.031388 108.194758,271.078429 108.60321,271.13748 C109.733461,271.300622 110.863712,271.45976 111.997968,271.587871 C112.16315,271.605887 112.329334,271.6209 112.494517,271.638915 C113.721876,271.77103 114.952238,271.881125 116.185603,271.973205 C116.58104,272.00223 116.977479,272.032256 117.372917,272.058279 C117.965573,272.096312 118.557228,272.126338 119.149884,272.154362 C119.673463,272.180385 120.198044,272.203405 120.722624,272.22142 C121.295258,272.240437 121.869894,272.253448 122.443529,272.264458 C122.974116,272.273465 123.503703,272.282473 124.035291,272.284475 C124.618937,272.287477 125.201582,272.283474 125.785228,272.276468 C126.296794,272.271464 126.807359,272.264458 127.317924,272.252447 C127.933606,272.236433 128.550288,272.214414 129.164969,272.188392 C129.63549,272.170376 130.10601,272.149358 130.57553,272.125337 C131.239265,272.089306 131.902999,272.046268 132.565733,271.999228 C132.982194,271.970202 133.398655,271.939175 133.815116,271.905146 C134.535914,271.846095 135.25571,271.778036 135.975507,271.704972 C136.329899,271.669942 136.684291,271.633911 137.038684,271.594877 C137.818547,271.507801 138.59841,271.411718 139.377272,271.30963 C139.668595,271.269595 139.960918,271.232563 140.252241,271.191527 C141.086164,271.074426 141.919086,270.947316 142.751006,270.812198 C142.987268,270.773165 143.22453,270.736132 143.460792,270.696098 C144.336762,270.547969 145.209728,270.388831 146.080692,270.219685 C146.27791,270.181652 146.475128,270.143619 146.671346,270.104585 C147.568338,269.927431 148.461327,269.736266 149.353314,269.536092 C149.531511,269.496057 149.709709,269.457024 149.887906,269.416989 C150.779893,269.211811 151.668877,268.994623 152.555859,268.767426 C152.742065,268.721386 152.926269,268.674345 153.111474,268.626303 C153.970424,268.402109 154.827373,268.165904 155.680317,267.922693 C155.903564,267.857637 156.126811,267.794582 156.350058,267.728525 C157.139933,267.498325 157.925802,267.256115 158.710671,267.006899 C159.011004,266.911817 159.312337,266.816734 159.612669,266.718649 C160.294424,266.495456 160.973175,266.264255 161.650926,266.028051 C162.065384,265.882925 162.480844,265.7388 162.894302,265.58867 C164.786396,264.905077 166.66047,264.177446 168.511519,263.391765 C171.973351,261.920489 175.976782,263.537892 177.44741,267.001895 C178.92004,270.465898 177.302249,274.466367 173.837414,275.936641 C172.110503,276.669276 170.361567,277.350867 168.60262,278.004434 C168.513521,278.041466 168.428427,278.083503 168.337326,278.117532 C168.07904,278.213615 167.81675,278.29969 167.557463,278.393772 C167.078933,278.566922 166.598402,278.734067 166.11787,278.901211 C165.375048,279.160436 164.631224,279.414657 163.881394,279.658868 C163.526001,279.77597 163.169606,279.889068 162.812211,280.001165 C161.954261,280.274402 161.093308,280.538631 160.230353,280.792851 C159.95605,280.872921 159.679744,280.950989 159.404439,281.029056 C158.473409,281.296288 157.540376,281.553511 156.602338,281.798724 Z M201.059745,176.975444 C201.912689,173.149126 202.48332,169.21972 202.757624,165.295317 C204.222245,144.250071 197.35164,123.933457 183.41021,108.093724 C169.691025,92.5022068 150.72303,83.1230752 130.003096,81.6828265 C122.72404,81.1763875 115.424961,81.6788231 108.310086,83.1811255 C104.631014,83.9507928 101.010006,81.5997545 100.233146,77.9175621 C99.4572871,74.2353697 101.812894,70.6212363 105.496972,69.844563 C113.846213,68.0850375 122.409692,67.4925238 130.949144,68.0870392 C155.273066,69.7785057 177.539712,80.7880508 193.645538,99.0909191 C210.009651,117.684039 218.075579,141.533716 216.356676,166.24414 C216.03532,170.845129 215.364578,175.452123 214.365472,179.938012 C213.623651,183.271903 210.554254,185.486823 207.248595,185.256623 C206.911221,185.233603 206.570845,185.182559 206.230468,185.107494 C202.556401,184.290786 200.240838,180.648628 201.059745,176.975444 Z M172.899676,21.5212675 C169.344741,20.2831941 167.465661,16.4008282 168.705033,12.845746 C169.942403,9.2906638 173.829705,7.41303593 177.381637,8.65110932 C203.277299,17.6639233 226.597111,33.3725424 244.817277,54.0744906 C266.18693,78.3575436 279.572746,108.094325 283.527123,140.069046 C283.989635,143.805286 281.335697,147.207235 277.600563,147.668635 C277.15507,147.724684 276.713581,147.734692 276.284106,147.705667 C273.094576,147.484475 270.405599,145.031349 269.99915,141.743498 C266.380144,112.497142 254.13459,85.2945579 234.58295,63.0782967 C217.910496,44.135874 196.579886,29.7644142 172.899676,21.5212675 Z M277.85084,168.12397 C281.597988,168.492289 284.336018,171.826179 283.966609,175.571426 C279.980197,216.070538 260.946129,253.187718 230.372289,280.085038 C211.15602,296.988693 188.920408,308.745886 164.282138,315.029334 C163.558337,315.214494 162.82953,315.275547 162.122748,315.227506 C159.26959,315.028333 156.738789,313.034605 155.992963,310.110069 C155.062934,306.46591 157.266373,302.754692 160.913409,301.823885 C183.443346,296.077903 203.78386,285.321578 221.36532,269.853167 C249.338281,245.244832 266.752556,211.289393 270.401595,174.238271 C270.769002,170.491022 274.158754,167.816703 277.85084,168.12397 Z M71.9413314,84.3814662 C75.0307509,82.2235954 79.2784524,82.9842549 81.4318359,86.0659266 C83.5882226,89.150601 82.8343883,93.3992845 79.7479721,95.5541527 C79.0011455,96.0766057 78.2613266,96.619076 77.5285155,97.1695533 C77.2762363,97.443791 77.004936,97.7050175 76.7016003,97.9402214 C74.3840351,99.7387807 72.1365475,101.696478 70.0232083,103.755263 C68.6657058,105.079411 66.8957467,105.721968 65.1388021,105.688939 C63.4088874,105.656912 61.6889837,104.968315 60.385541,103.631155 C57.7576323,100.936819 57.8136944,96.6210778 60.5096784,93.9958017 C61.265515,93.259163 62.0403726,92.5375374 62.8252413,91.8249196 C63.1005461,91.4566002 63.4168962,91.1113009 63.7772951,90.7950267 C66.3741694,88.5090448 69.12121,86.3521748 71.9413314,84.3814662 Z M199.744889,258.855933 C197.937889,258.729823 196.186951,257.891096 194.949582,256.382788 C192.558936,253.475268 192.981403,249.179543 195.889622,246.791473 C196.888728,245.971762 197.876822,245.131033 198.855905,244.272289 C221.227667,224.593227 234.688566,197.385639 236.755855,167.666873 C238.380653,144.332643 232.858541,121.49184 220.78718,101.614607 C218.831015,98.3968173 219.85715,94.2051832 223.073711,92.2524903 C226.293274,90.2937921 230.484914,91.3246859 232.438076,94.539473 C245.982067,116.838806 252.175922,142.454014 250.355908,168.611692 C248.037341,201.934583 232.944636,232.43903 207.857869,254.505161 C206.763658,255.467995 205.658435,256.406809 204.542199,257.323604 C203.141649,258.4726 201.419743,258.972033 199.744889,258.855933 Z M209.434314,66.6072563 C211.928074,68.8802269 212.625847,72.7335677 210.766789,75.5500095 C208.540325,78.9199312 204.10041,79.5744987 201.042025,77.3445653 C182.917965,60.5019631 159.399934,50.0098666 134.630518,47.7859385 C104.467132,45.0785913 75.1186482,54.3476274 51.9890474,73.8845656 C49.6774889,75.8352568 47.0896245,77.9270704 44.4466993,80.0979525 C41.7076676,82.3499049 37.6832132,82.023622 35.3396192,79.3643164 C33.2913521,77.0423033 33.179228,73.6753842 34.893125,71.2392722 C37.6601877,68.5839701 40.2780853,66.0828016 41.26718,65.2110458 C66.7543903,42.7916085 99.4455742,31.740027 133.319067,34.0950688 C161.572339,36.0597722 188.593246,47.6027797 209.434314,66.6072563 Z M23.3655658,212.95874 C24.9132789,209.907095 27.0606557,207.269808 29.7506331,205.117943 C34.7721911,201.106465 41.0491387,199.310908 47.4271982,200.058556 C53.7041458,200.794194 59.3353786,203.918903 63.2827477,208.857185 C63.8173394,209.525764 64.3749566,210.169322 64.9285694,210.816884 C65.1898586,211.088119 65.4631611,211.34334 65.7134381,211.627586 C79.4336242,227.217102 98.4026198,236.595233 119.121552,238.036482 C140.175856,239.500752 160.497349,232.630796 176.340885,218.692712 C177.468133,217.702854 178.565347,216.680968 179.631527,215.630056 L179.64354,215.619047 C180.624626,214.651208 181.573677,213.652342 182.500703,212.637462 C182.599813,212.528367 182.704929,212.425278 182.803038,212.315183 C183.594914,211.437422 184.354755,210.534639 185.103584,209.623849 C185.328833,209.351613 185.562091,209.087384 185.783336,208.812145 C186.678327,207.695177 187.547289,206.558191 188.379209,205.396184 C190.568633,202.333529 194.824343,201.630919 197.888735,203.817815 C200.950123,206.007714 201.656906,210.264405 199.467482,213.325058 C198.672603,214.437022 197.844686,215.524965 196.99875,216.601899 C193.51189,221.038746 189.610572,225.176333 185.345852,228.925583 C166.747266,245.286768 142.891862,253.349759 118.175505,251.63227 C93.8525836,249.940803 71.585938,238.930257 55.4801115,220.62839 C55.2448511,220.361158 54.9975774,220.110941 54.7402926,219.872735 C54.030507,219.045017 53.317718,218.220302 52.6339612,217.36456 C50.9420886,215.247725 48.5284171,213.909565 45.8394408,213.595292 C43.1054147,213.274014 40.4154373,214.044682 38.263055,215.762171 C37.1077762,216.686973 36.1867568,217.816952 35.5260255,219.118081 C33.8241418,222.476993 29.7175965,223.818155 26.3668878,222.11668 C26.0775676,221.970554 25.8102717,221.801407 25.5519858,221.621251 C22.8059464,219.711595 21.810845,216.027401 23.3655658,212.95874 Z M6.74657126,83.6581391 C5.13678949,81.8445668 3.78829693,79.7967914 2.78118221,77.5628546 C1.28652787,74.2499824 0.516675769,70.5497744 0.677854167,66.6714119 C0.916117887,60.9374407 4.97360888,53.8072589 7.89183889,50.4663624 C17.6686603,39.2706559 37.8359823,24.0634716 55.9590416,15.4700212 C83.7948513,2.27458098 114.39472,-2.58363101 144.743312,1.2967332 C146.264996,1.49090154 147.785679,1.68707162 149.305361,1.92527814 C153.025479,2.50878403 155.567292,5.99580722 154.982645,9.71302999 C154.912567,10.1564144 154.802445,10.5837849 154.656284,10.9891363 C153.565076,13.9937413 150.467647,15.9033969 147.194024,15.3889509 C118.073793,10.8199897 88.5451091,15.1057053 61.8005071,27.7846978 C51.7523855,32.5488282 42.3109353,38.429927 33.655355,45.2688563 C27.9500401,49.7747628 21.0403922,55.7669579 17.6246115,60.0046319 C16.3892442,61.5369604 14.5391964,64.8538361 14.5452031,67.2479117 C14.5502086,69.9712728 15.4001494,72.4804482 17.0589854,74.3840987 C17.1560929,74.4961959 17.2532004,74.6062913 17.3543123,74.7123833 C19.7589739,77.5408355 19.5257157,81.7805112 16.7706663,84.3157092 C16.4122696,84.6439938 16.0288453,84.9272394 15.628402,85.1674477 C12.9133969,86.7908551 9.35946331,86.3825011 7.08294357,84.0354662 C6.96881725,83.9113586 6.85869537,83.7842484 6.74657126,83.6581391 Z M128.728085,306.314378 C132.502263,306.218295 135.62572,309.174858 135.731837,312.936119 C135.81593,316.020793 133.837741,318.679098 131.050656,319.596894 C129.713176,319.653943 128.375695,319.691976 127.041218,319.717999 C126.386493,319.730009 125.730768,319.74202 125.075042,319.747024 C125.176154,319.746023 125.275263,319.749026 125.375374,319.748025 C127.261462,319.735014 129.155558,319.676963 131.050656,319.596894 C130.437978,319.799069 129.785255,319.919173 129.107505,319.93819 C123.905748,320.083316 118.637917,319.972219 113.447172,319.611907 C75.5061771,316.97462 40.4453704,301.301032 13.3924272,275.15036 C32.3974627,293.390173 55.1276213,306.416467 79.8089396,313.516622 C78.9900332,313.280418 78.1781345,313.030201 77.3642337,312.781985 C58.5924563,307.039006 41.1221195,297.917098 25.6990486,285.789584 C25.5418746,285.666477 25.3816974,285.549375 25.2255245,285.426269 C25.0703527,285.304163 24.9161821,285.181056 24.7620115,285.05895 C24.738986,285.040934 24.7149594,285.021918 24.6909328,285.003902 C24.4857056,284.842763 24.2804785,284.680622 24.0772535,284.51648 C24.0201904,284.469439 23.9711361,284.417394 23.9160751,284.368351 C16.1945286,278.116931 8.99956497,271.108856 2.43529938,263.382157 C2.12095144,263.008833 1.80259908,262.640514 1.49025336,262.264187 C-0.815298513,259.377685 -0.405845314,255.168035 2.44230713,252.786971 C5.11526567,250.559039 8.98354724,250.724182 11.4582864,253.035186 C11.6625124,253.226352 11.8597307,253.426525 12.0439346,253.646716 C12.3382604,253.999022 12.6415961,254.342319 12.9399263,254.692623 C16.4317912,258.825206 20.13489,262.735596 24.0201904,266.420791 C24.9752475,267.323574 25.934309,268.221352 26.9103894,269.09511 C27.3108326,269.455422 27.7182836,269.805726 28.1227312,270.161034 C29.3651064,271.249978 30.6134881,272.328913 31.8878987,273.372818 C31.955974,273.427866 32.0230483,273.484916 32.0911236,273.540964 C55.3568751,292.53343 83.8524151,303.893279 114.392218,306.01612 C119.143477,306.346406 123.967816,306.447494 128.728085,306.314378 Z" id="Combined-Shape" fill="#FFFFFF"></path>
        <path d="M426,158.777391 C426,149.31932 427.672013,139.877249 431.000038,130.481179 C434.328062,121.083108 439.206099,112.661045 445.644147,105.184989 C452.084196,97.7089328 459.962255,91.6868877 469.282325,87.1048533 C478.600395,82.5068188 489.174474,80.2168016 501.016563,80.2168016 C515.072668,80.2168016 527.130758,83.4048255 537.192834,89.7668733 C544.324887,94.2769071 550.148931,99.7489481 554.678965,106.186996 C557.744988,110.545029 556.564979,116.585074 552.094946,119.485096 C547.884914,122.213117 542.260872,121.153109 539.36285,117.059078 C538.098841,115.275065 536.746831,113.645052 535.30482,112.167041 C531.976795,108.777016 528.338768,106.036995 524.420738,103.96298 C520.504709,101.888964 516.480679,100.416953 512.332647,99.5209464 C508.182616,98.6389398 504.126586,98.1889364 500.134556,98.1889364 C491.402491,98.1889364 483.664432,99.99895 476.928382,103.638977 C470.196331,107.259004 464.544289,111.99704 459.962255,117.833084 C455.36622,123.685128 451.928194,130.263177 449.638177,137.585232 C447.34616,144.907287 446.202152,152.275342 446.202152,159.659397 C446.202152,167.95746 447.564162,175.835519 450.304182,183.297575 C453.044203,190.775631 456.852231,197.401681 461.728268,203.157724 C466.620305,208.931767 472.394348,213.513801 479.050398,216.919827 C485.706448,220.325852 492.952502,222.029865 500.798561,222.029865 C504.932592,222.029865 509.190624,221.501861 513.554657,220.465853 C517.920689,219.443846 522.100721,217.771833 526.092751,215.481816 C530.086781,213.189799 533.818809,210.295777 537.300835,206.825751 C538.896847,205.225739 540.360858,203.475726 541.692868,201.577712 C544.472889,197.625682 549.826929,196.467674 554.066961,198.785691 C559.006998,201.487711 560.65501,207.919759 557.416986,212.525794 C555.792973,214.835811 553.96896,217.001828 551.944945,219.025843 C547.424911,223.545877 542.332872,227.353905 536.63483,230.465928 C530.938787,233.561952 524.902742,235.929969 518.540694,237.555982 C512.176646,239.179994 505.9706,240 499.902554,240 C489.096473,240 479.190399,237.633982 470.164331,232.895947 C461.140264,228.173911 453.338205,221.997865 446.758156,214.365808 C440.164106,206.749751 435.072068,198.095686 431.450041,188.405613 C427.812014,178.71554 426,168.839466 426,158.777391 Z M694.082411,239.783198 C682.984327,239.783198 672.890252,237.523181 663.788183,233.005148 C654.686115,228.499114 646.884057,222.509069 640.382008,215.031013 C633.865959,207.570957 628.833921,199.024893 625.289895,189.39682 C621.743868,179.782748 619.963855,169.952675 619.963855,159.892599 C619.963855,149.38052 621.853869,139.320445 625.613897,129.706373 C629.391925,120.094301 634.607965,111.580237 641.266014,104.180181 C647.922064,96.796126 655.800124,90.9140819 664.902192,86.5480491 C674.00426,82.1840164 683.882334,80 694.530414,80 C705.630497,80 715.676573,82.3220174 724.70264,86.9820524 C733.726708,91.6400873 741.498766,97.7561332 748.014815,105.29419 C754.516864,112.834246 759.546902,121.37831 763.108928,130.930382 C766.652955,140.464453 768.432968,150.200527 768.432968,160.108601 C768.432968,170.61868 766.544954,180.682755 762.766926,190.294827 C758.990897,199.908899 753.818859,208.374963 747.240809,215.697018 C740.64676,223.019073 732.814701,228.871117 723.710633,233.237149 C714.608565,237.601182 704.73249,239.783198 694.082411,239.783198 Z M640.150006,159.892599 C640.150006,167.878659 641.450016,175.602717 644.036035,183.080773 C646.620055,190.558829 650.290082,197.168879 655.026118,202.940922 C659.764153,208.714965 665.460196,213.297 672.116246,216.703025 C678.774296,220.109051 686.172351,221.797063 694.300412,221.797063 C702.736476,221.797063 710.290532,220.00105 716.946582,216.363023 C723.602632,212.740996 729.252674,208.00496 733.912709,202.168916 C738.572744,196.316872 742.132771,189.706823 744.578789,182.306767 C747.008808,174.908712 748.232817,167.432656 748.232817,159.892599 C748.232817,151.904539 746.930807,144.164481 744.346788,136.702425 C741.760768,129.226369 738.06274,122.64832 733.246704,116.950277 C728.448668,111.254234 722.750626,106.7022 716.172576,103.296175 C709.578527,99.8921492 702.302472,98.1881364 694.300412,98.1881364 C685.878349,98.1881364 678.324292,99.9681498 671.668243,103.514176 C665.012193,107.074203 659.34615,111.734238 654.686115,117.508281 C650.02608,123.268325 646.450053,129.860374 643.928034,137.244429 C641.420016,144.644485 640.150006,152.198541 640.150006,159.892599 Z M860.523659,118.390488 L860.523659,228.685315 C860.523659,234.199356 856.053625,238.67139 850.539584,238.67139 C845.023543,238.67139 840.555509,234.199356 840.555509,228.685315 L840.555509,91.5742868 C840.555509,85.7882434 845.243544,81.0982082 851.029588,81.0982082 C854.221612,81.0982082 857.237634,82.5542192 859.225649,85.0522379 L953.728358,203.825129 L953.728358,91.3162849 C953.728358,85.8022435 958.198391,81.33221 963.712433,81.33221 C969.228474,81.33221 973.696508,85.8022435 973.696508,91.3162849 L973.696508,227.281305 C973.696508,233.571352 968.60047,238.67139 962.310422,238.67139 C958.852396,238.67139 955.582372,237.099378 953.420356,234.401358 L860.523659,118.390488 Z M1160.54851,98.8551414 L1115.06217,98.8551414 L1115.06217,228.686115 C1115.06217,234.200157 1110.59013,238.67019 1105.07809,238.67019 C1099.56205,238.67019 1095.09202,234.200157 1095.09202,228.686115 L1095.09202,98.8551414 L1049.58968,98.8551414 C1044.68564,98.8551414 1040.71161,94.8811116 1040.71161,89.9770748 C1040.71161,85.073038 1044.68564,81.0990082 1049.58968,81.0990082 L1160.54851,81.0990082 C1165.45255,81.0990082 1169.42658,85.073038 1169.42658,89.9770748 C1169.42658,94.8811116 1165.45255,98.8551414 1160.54851,98.8551414 Z M1236.45608,228.686915 L1236.45608,90.929882 C1236.45608,85.5018413 1240.85811,81.0998082 1246.28615,81.0998082 L1303.91658,81.0998082 C1310.88264,81.0998082 1317.26068,82.5538192 1323.11273,85.4338408 C1328.96477,88.3118623 1333.97881,92.1678913 1338.22084,96.9659272 C1342.43087,101.779963 1345.7149,107.184004 1348.09692,113.174049 C1350.45093,119.164094 1351.62694,125.264139 1351.62694,131.486186 C1351.62694,136.950227 1350.85294,142.244267 1349.30292,147.354305 C1347.75691,152.446343 1345.5269,157.074378 1342.64687,161.222409 C1339.76885,165.35844 1336.27083,168.916467 1332.2148,171.872489 C1328.15877,174.830511 1323.60873,176.982527 1318.56069,178.312537 L1347.44891,223.98688 C1351.47694,230.358928 1346.89891,238.67099 1339.36085,238.67099 C1336.08683,238.67099 1333.0408,236.994977 1331.28479,234.230957 L1298.15854,182.074566 L1256.42423,182.074566 L1256.42423,228.686915 C1256.42423,234.198956 1251.95419,238.67099 1246.44015,238.67099 C1240.92611,238.67099 1236.45608,234.198956 1236.45608,228.686915 Z M1256.42423,164.320432 L1304.13259,164.320432 C1308.28262,164.320432 1312.02865,163.438426 1315.34067,161.656412 C1318.6847,159.892399 1321.53472,157.476381 1323.88473,154.444358 C1326.27075,151.424336 1328.09677,147.910309 1329.42878,143.916279 C1330.75879,139.908249 1331.44079,135.776218 1331.44079,131.486186 C1331.44079,127.042153 1330.66679,122.864121 1329.11877,118.946092 C1327.54076,115.030063 1325.49675,111.548037 1322.89473,108.514014 C1320.29671,105.479991 1317.26068,103.111973 1313.79466,101.409961 C1310.32463,99.7059478 1306.6406,98.8559414 1302.80258,98.8559414 L1256.42423,98.8559414 L1256.42423,164.320432 Z M1483.01593,81.1000083 C1488.12197,81.1000083 1492.718,84.1900314 1494.64801,88.9160669 L1550.26643,225.101088 C1552.91045,231.579137 1548.14642,238.67119 1541.15036,238.67119 C1537.13433,238.67119 1533.52231,236.233172 1532.0203,232.511144 L1515.87017,192.508844 L1449.73768,192.508844 L1433.78756,232.483144 C1432.29555,236.219172 1428.67952,238.67119 1424.65549,238.67119 C1417.66544,238.67119 1412.9074,231.579137 1415.55742,225.109088 L1471.38584,88.9000668 C1473.31985,84.1820314 1477.91389,81.1000083 1483.01593,81.1000083 Z M1511.42614,176.982727 L1483.01993,104.180181 L1453.73171,176.982727 L1511.42614,176.982727 Z M1621.27336,232.372943 L1621.27336,90.929882 C1621.27336,85.5018413 1625.6734,81.0998082 1631.10344,81.0998082 L1688.73387,81.0998082 C1695.68592,81.0998082 1702.07797,82.5538192 1707.93001,85.4338408 C1713.76606,88.3118623 1718.7961,92.1678913 1723.02213,96.9659272 C1727.23216,101.779963 1730.53018,107.184004 1732.8982,113.174049 C1735.25222,119.164094 1736.44423,125.264139 1736.44423,131.486186 C1736.44423,136.950227 1735.67022,142.244267 1734.10621,147.354305 C1732.5582,152.446343 1730.34418,157.074378 1727.45016,161.222409 C1724.57014,165.35844 1721.08811,168.916467 1717.03208,171.872489 C1712.96005,174.830511 1708.41002,176.982527 1703.37798,178.312537 L1732.2602,223.97688 C1736.29023,230.352928 1731.71019,238.67099 1724.16614,238.67099 C1720.89011,238.67099 1717.84009,236.994977 1716.08408,234.228957 L1682.95983,182.074566 L1641.24151,182.074566 L1641.24151,232.372943 C1641.24151,235.850969 1638.42349,238.67099 1634.94547,238.67099 L1627.56941,238.67099 C1624.09139,238.67099 1621.27336,235.850969 1621.27336,232.372943 Z M1641.24151,164.320432 L1688.94987,164.320432 C1693.0839,164.320432 1696.82993,163.438426 1700.15796,161.656412 C1703.48598,159.892399 1706.336,157.476381 1708.70202,154.444358 C1711.07204,151.424336 1712.91405,147.910309 1714.24606,143.916279 C1715.57607,139.908249 1716.24208,135.776218 1716.24208,131.486186 C1716.24208,127.042153 1715.46807,122.864121 1713.92006,118.946092 C1712.35805,115.030063 1710.29803,111.548037 1707.69801,108.514014 C1705.11199,105.479991 1702.07797,103.111973 1698.61194,101.409961 C1695.12592,99.7059478 1691.45789,98.8559414 1687.61786,98.8559414 L1641.24151,98.8559414 L1641.24151,164.320432 Z M1813.1432,85.5170414 L1858.28554,163.221624 L1903.87188,85.4850411 C1905.4659,82.7690208 1908.37992,81.0990082 1911.52994,81.0990082 L1912.53195,81.0990082 C1919.43,81.0990082 1923.69203,88.6190646 1920.15001,94.537109 L1868.26962,181.193759 L1868.26962,228.686115 C1868.26962,234.200157 1863.80158,238.67019 1858.28554,238.67019 C1852.7715,238.67019 1848.30147,234.200157 1848.30147,228.686115 L1848.30147,180.743756 L1796.64908,94.5411091 C1793.10305,88.6230647 1797.36509,81.0990082 1804.26514,81.0990082 L1805.46715,81.0990082 C1808.63117,81.0990082 1811.55519,82.7830209 1813.1432,85.5170414 Z" id="Combined-Shape" fill="#FFFFFF"></path>
    </g>
</svg>