<svg fill="none" xmlns="http://www.w3.org/2000/svg" viewBox="0 0 20 20">
  <path fill-rule="evenodd" clip-rule="evenodd" d="M13.6569 13.6569C12.1566 15.1571 10.1217 16 8 16C5.87827 16 3.84344 15.1571 2.34315 13.6569C0.842855 12.1566 0 10.1217 0 8C0 5.87827 0.842855 3.84344 2.34315 2.34315C3.84344 0.842855 5.87827 0 8 0C10.1217 0 12.1566 0.842855 13.6569 2.34315C15.1571 3.84344 16 5.87827 16 8C16 10.1217 15.1571 12.1566 13.6569 13.6569ZM8.70711 4.29289C8.89464 4.48043 9 4.73478 9 5V8.586L10.293 7.293C10.4816 7.11084 10.7342 7.01005 10.9964 7.01233C11.2586 7.0146 11.5094 7.11977 11.6948 7.30518C11.8802 7.49059 11.9854 7.7414 11.9877 8.0036C11.99 8.2658 11.8892 8.5184 11.707 8.707L8.707 11.707C8.51947 11.8945 8.26516 11.9998 8 11.9998C7.73484 11.9998 7.48053 11.8945 7.293 11.707L4.293 8.707C4.11084 8.5184 4.01005 8.2658 4.01233 8.0036C4.0146 7.7414 4.11977 7.49059 4.30518 7.30518C4.49059 7.11977 4.7414 7.0146 5.0036 7.01233C5.2658 7.01005 5.5184 7.11084 5.707 7.293L7 8.586V5C7 4.73478 7.10536 4.48043 7.29289 4.29289C7.48043 4.10536 7.73478 4 8 4C8.26522 4 8.51957 4.10536 8.70711 4.29289Z" fill="#1F2937"/>
  <path d="M9 5C9 4.73478 8.89464 4.48043 8.70711 4.29289C8.51957 4.10536 8.26522 4 8 4C7.73478 4 7.48043 4.10536 7.29289 4.29289C7.10536 4.48043 7 4.73478 7 5V8.586L5.707 7.293C5.5184 7.11084 5.2658 7.01005 5.0036 7.01233C4.7414 7.0146 4.49059 7.11977 4.30518 7.30518C4.11977 7.49059 4.0146 7.7414 4.01233 8.0036C4.01005 8.2658 4.11084 8.5184 4.293 8.707L7.293 11.707C7.48053 11.8945 7.73484 11.9998 8 11.9998C8.26516 11.9998 8.51947 11.8945 8.707 11.707L11.707 8.707C11.8892 8.5184 11.99 8.2658 11.9877 8.0036C11.9854 7.7414 11.8802 7.49059 11.6948 7.30518C11.5094 7.11977 11.2586 7.0146 10.9964 7.01233C10.7342 7.01005 10.4816 7.11084 10.293 7.293L9 8.586V5Z" fill="white"/>
</svg>