<svg width="408" height="549" viewBox="0 0 408 549" fill="none" xmlns="http://www.w3.org/2000/svg">
<path fill-rule="evenodd" clip-rule="evenodd" d="M259.636 84.8969H52.987C31.0391 84.8969 13.2468 103.902 13.2468 127.345V492.402C13.2468 515.846 31.0391 534.851 52.987 534.851H259.636C281.584 534.851 299.377 515.846 299.377 492.402V127.345C299.377 103.902 281.584 84.8969 259.636 84.8969ZM52.987 70.7474C23.7231 70.7474 0 96.0872 0 127.345V492.402C0 523.66 23.7231 549 52.987 549H259.636C288.9 549 312.623 523.66 312.623 492.402V127.345C312.623 96.0872 288.9 70.7474 259.636 70.7474H52.987Z" fill="white"/>
<path fill-rule="evenodd" clip-rule="evenodd" d="M259.636 84.8969H52.987C31.0391 84.8969 13.2468 103.902 13.2468 127.345V492.402C13.2468 515.846 31.0391 534.851 52.987 534.851H259.636C281.584 534.851 299.377 515.846 299.377 492.402V127.345C299.377 103.902 281.584 84.8969 259.636 84.8969ZM52.987 70.7474C23.7231 70.7474 0 96.0872 0 127.345V492.402C0 523.66 23.7231 549 52.987 549H259.636C288.9 549 312.623 523.66 312.623 492.402V127.345C312.623 96.0872 288.9 70.7474 259.636 70.7474H52.987Z" fill="white"/>
<path fill-rule="evenodd" clip-rule="evenodd" d="M355.013 14.1495H161.61C139.662 14.1495 121.87 33.1543 121.87 56.5979V421.655C121.87 445.098 139.662 464.103 161.61 464.103H355.013C376.961 464.103 394.753 445.098 394.753 421.655V56.5979C394.753 33.1543 376.961 14.1495 355.013 14.1495ZM161.61 0C132.346 0 108.623 25.3398 108.623 56.5979V421.655C108.623 452.913 132.346 478.253 161.61 478.253H355.013C384.277 478.253 408 452.913 408 421.655V56.5979C408 25.3398 384.277 0 355.013 0H161.61Z" fill="white"/>
<path fill-rule="evenodd" clip-rule="evenodd" d="M355.013 14.1495H161.61C139.662 14.1495 121.87 33.1543 121.87 56.5979V421.655C121.87 445.098 139.662 464.103 161.61 464.103H355.013C376.961 464.103 394.753 445.098 394.753 421.655V56.5979C394.753 33.1543 376.961 14.1495 355.013 14.1495ZM161.61 0C132.346 0 108.623 25.3398 108.623 56.5979V421.655C108.623 452.913 132.346 478.253 161.61 478.253H355.013C384.277 478.253 408 452.913 408 421.655V56.5979C408 25.3398 384.277 0 355.013 0H161.61Z" fill="white"/>
<path d="M204 79.2371H259.636C288.9 79.2371 312.623 104.577 312.623 135.835V466.933H204V79.2371Z" fill="white"/>
<path d="M204 79.2371H259.636C288.9 79.2371 312.623 104.577 312.623 135.835V466.933H204V79.2371Z" fill="white"/>
<path fill-rule="evenodd" clip-rule="evenodd" d="M259.636 93.3866H217.247V452.784H299.377V135.835C299.377 112.391 281.584 93.3866 259.636 93.3866ZM204 79.2371V466.933H312.623V135.835C312.623 104.577 288.9 79.2371 259.636 79.2371H204Z" fill="white"/>
<path fill-rule="evenodd" clip-rule="evenodd" d="M259.636 93.3866H217.247V452.784H299.377V135.835C299.377 112.391 281.584 93.3866 259.636 93.3866ZM204 79.2371V466.933H312.623V135.835C312.623 104.577 288.9 79.2371 259.636 79.2371H204Z" fill="white"/>
</svg>
